<!-- Generator: Adobe Illustrator 25.1.0, SVG Export Plug-In . SVG Version: 6.00 Build 0)  -->
<svg version="1.1"
     id="Group_1518"
     xmlns="http://www.w3.org/2000/svg"
     xmlns:xlink="http://www.w3.org/1999/xlink"
     x="0px"
     y="0px"
     viewBox="0 0 209.7 216.5"
     style="enable-background:new 0 0 209.7 216.5;"
     xml:space="preserve">
  <rect x="16.7"
        y="7.8"
        style="fill:none;"
        width="176.3"
        height="200.9" />
  <rect id="Rectangle_1361"
        x="170.5"
        y="131.1"
        style="fill:#E0E0E0;"
        width="21"
        height="2.8" />
  <rect x="16.7"
        y="7.8"
        style="fill:none;"
        width="176.3"
        height="200.9" />
  <path id="Path_2505"
        style="fill:#FAFAFA;"
        d="M173.4,131.2c0.2,0.9,0.2,1.8,0,2.6C173.2,132.9,173.2,132.1,173.4,131.2" />
  <path id="Path_2506"
        style="fill:#FAFAFA;"
        d="M172.9,131.1c0.2,0.9,0.2,1.8,0,2.6C172.8,132.9,172.8,132,172.9,131.1" />
  <path id="Path_2507"
        style="fill:#FAFAFA;"
        d="M189.9,131.2c0.2,0.9,0.2,1.8,0,2.6C189.7,132.9,189.7,132.1,189.9,131.2" />
  <path id="Path_2508"
        style="fill:#FAFAFA;"
        d="M189.4,131.1c0.2,0.9,0.2,1.8,0,2.6C189.3,132.9,189.3,132,189.4,131.1" />
  <path id="Path_2509"
        style="fill:#FAFAFA;"
        d="M186.7,132.6c0,0.1-2.4,0.1-5.4,0.1s-5.4-0.1-5.4-0.1s2.4-0.1,5.4-0.1
	S186.7,132.5,186.7,132.6" />
  <rect id="Rectangle_1362"
        x="170.5"
        y="143.7"
        style="fill:#E0E0E0;"
        width="21"
        height="5.6" />
  <path id="Path_2510"
        style="fill:#FAFAFA;"
        d="M191.7,147.7c0,0-0.1,0-0.1,0.1c-0.1,0-0.2,0.1-0.4,0.2c-0.5,0.2-0.9,0.3-1.4,0.4
	c-0.8,0.1-1.6,0-2.3-0.3c-0.4-0.2-0.8-0.6-1.1-1c-0.3-0.5-0.5-1-0.4-1.6c0-0.3,0.2-0.6,0.4-0.8c0.2-0.3,0.5-0.4,0.9-0.4
	c0.3,0,0.7,0.2,0.9,0.5c0.2,0.3,0.4,0.6,0.4,1c0.1,0.7-0.2,1.5-0.7,2c-0.5,0.6-1.2,0.9-2,1c-0.8,0.1-1.6,0-2.3-0.3
	c-0.8-0.2-1.5-0.7-2-1.4c-0.3-0.3-0.4-0.8-0.5-1.2c0-0.5,0.1-0.9,0.4-1.3c0.2-0.2,0.4-0.3,0.7-0.3c0.2,0,0.5,0.1,0.7,0.2
	c0.4,0.3,0.7,0.7,0.8,1.1c0.2,0.9-0.1,1.8-0.8,2.5c-0.7,0.6-1.5,0.9-2.4,1c-0.8,0.1-1.7,0-2.4-0.2c-0.8-0.2-1.4-0.8-1.9-1.4
	c-0.4-0.7-0.5-1.5-0.2-2.2c0.1-0.4,0.5-0.6,0.9-0.7c0.4-0.1,0.8,0,1.1,0.3c0.5,0.5,0.7,1.2,0.5,1.9c-0.2,0.6-0.6,1.1-1.1,1.5
	c-0.8,0.7-1.8,1.1-2.9,1.1c-0.8,0-1.6-0.2-2.3-0.5c-0.4-0.2-0.8-0.5-1.2-0.9c-0.1-0.1-0.2-0.2-0.3-0.3c0,0-0.1-0.1-0.1-0.1
	c0.4,0.5,1,0.9,1.6,1.2c0.7,0.3,1.5,0.5,2.2,0.5c1-0.1,2-0.4,2.8-1.1c0.5-0.4,0.8-0.9,1-1.4c0.2-0.6,0-1.2-0.4-1.7
	c-0.3-0.2-0.6-0.3-0.9-0.2c-0.3,0.1-0.6,0.3-0.7,0.6c-0.2,0.7-0.2,1.4,0.2,2c0.4,0.6,1,1.1,1.7,1.3c0.8,0.2,1.6,0.3,2.3,0.2
	c0.8-0.1,1.6-0.4,2.2-0.9c0.6-0.6,0.9-1.4,0.7-2.2c-0.1-0.4-0.3-0.7-0.7-1c-0.3-0.2-0.7-0.2-1,0.1c-0.3,0.3-0.4,0.7-0.4,1
	c0,0.4,0.2,0.8,0.4,1.1c0.5,0.6,1.2,1.1,1.9,1.3c0.7,0.3,1.5,0.4,2.2,0.3c0.7-0.1,1.4-0.4,1.9-0.9c0.5-0.5,0.7-1.1,0.7-1.8
	c0-0.6-0.5-1.1-1.1-1.3c-0.3,0-0.5,0.1-0.7,0.3c-0.2,0.2-0.3,0.5-0.3,0.7c-0.1,0.5,0,1.1,0.3,1.5c0.3,0.4,0.6,0.7,1,1
	c0.7,0.4,1.5,0.5,2.2,0.4c0.5-0.1,1-0.2,1.4-0.4C191.5,147.8,191.7,147.7,191.7,147.7" />
  <rect id="Rectangle_1363"
        x="172.3"
        y="134"
        style="fill:#EBEBEB;"
        width="19.1"
        height="9.7" />
  <path id="Path_2511"
        style="fill:#E0E0E0;"
        d="M175.5,134.3c0.2,3.1,0.2,6.3,0,9.4C175.3,140.6,175.3,137.4,175.5,134.3" />
  <path id="Path_2512"
        style="fill:#E0E0E0;"
        d="M176.9,134.2c0.2,3.1,0.2,6.2,0,9.3C176.8,140.4,176.8,137.3,176.9,134.2" />
  <path id="Path_2513"
        style="fill:#E0E0E0;"
        d="M189.3,133.9c0.2,3.3,0.2,6.5,0,9.8C189.1,140.4,189.1,137.1,189.3,133.9" />
  <path id="Path_2514"
        style="fill:#E0E0E0;"
        d="M187.6,134c0.2,3.2,0.2,6.4,0,9.5C187.4,140.3,187.4,137.2,187.6,134" />
  <rect id="Rectangle_1364"
        x="58.6"
        y="23.3"
        style="fill:#E0E0E0;"
        width="128.7"
        height="85.4" />
  <path id="Path_2515"
        style="fill:#F5F5F5;"
        d="M25.3,31.8c-0.1-12,9.5-21.9,21.6-22.1s21.9,9.5,22.1,21.6c0.1,12-9.5,21.9-21.5,22.1
	C35.4,53.5,25.5,43.9,25.3,31.8 M57.5,31.3c-0.1-5.8-4.9-10.3-10.6-10.2c-5.8,0.1-10.3,4.9-10.2,10.6c0.1,5.7,4.9,10.3,10.6,10.2
	C53,41.8,57.6,37,57.5,31.3" />
  <path id="Path_2516"
        style="fill:#E0E0E0;"
        d="M25.3,31.8c-0.2-12.1,9.4-22,21.5-22.3L46.9,21c-5.8,0.1-10.4,4.9-10.3,10.6
	S41.5,42,47.3,41.9l0.2,11.4C35.4,53.5,25.5,43.9,25.3,31.8" />
  <path id="Path_2517"
        style="fill:#EBEBEB;"
        d="M44.8,7.8C58.5,7.4,70,18.3,70.3,32.1c0,0.2,0,0.3,0,0.5L57,32.8
	c-0.1-6.8-5.2-11-12-10.9L44.8,7.8z" />
  <path id="Path_2518"
        style="fill:#F5F5F5;"
        d="M60.2,205.3c-1.1-0.9-1.5-2.5-0.8-3.8c0.4-0.6,1.1-1,1.8-1.3c0.7-0.2,1.4-0.6,2-1
	c1.1-0.9,1.4-2.4,2.1-3.6c0.8-1.4,2.3-2.3,3.9-2.3c1.9,0.2,3.4,1.5,4,3.3c0.6,1.7,0.8,3.6,0.7,5.4c0.1,1-0.1,2-0.8,2.8
	c-0.8,0.5-1.7,0.8-2.7,0.6l-10-0.3" />
  <path id="Path_2519"
        style="fill:#E0E0E0;"
        d="M79.2,177.8H53l4.7,28.2c0.2,1.2,1.1,2.2,2.2,2.5c0,0,0.1,0,0.1,0
	c0.1,0,0.2,0,0.2,0.1c0.2,0,0.4,0.1,0.5,0.1v0l0.1,0h11.7c0.2,0,0.4,0,0.6-0.1c1.4-0.2,2.5-1.3,2.7-2.8l2.3-19.4l0.1-0.8h0l0.9-7.7
	L79.2,177.8z M74.3,195.8h-2.7l0.3-8.2H75L74.3,195.8z M75.3,187.6h2.6l-1,8.2h-2.3L75.3,187.6z M67.6,204.9l-0.2-7.1h3.9l-0.2,7.1
	H67.6z M63.4,197.8h3.8l0.2,7.1h-3.4L63.4,197.8z M63.7,204.9h-3.2c-0.3-1.9-0.7-4.4-1.1-7.1h3.7L63.7,204.9z M63.2,195.8l-0.6-8.2
	h4.3l0.2,8.2H63.2z M67.4,195.8l-0.2-8.2h4.4l-0.3,8.2H67.4z M67.1,185.7l-0.2-7.6h5l-0.3,7.6H67.1z M66.9,185.7h-4.4l-0.6-7.6h4.8
	L66.9,185.7z M62.2,185.7h-4.7c-0.2-1-0.3-2-0.5-2.9c-0.5-3.1-0.7-4.2-0.8-4.6h5.3L62.2,185.7z M62.3,187.6l0.6,8.2h-3.9
	c-0.1-0.8-0.3-1.7-0.4-2.5c-0.3-1.9-0.6-3.9-0.9-5.7H62.3z M58.8,195.8h-2.5l-1.4-8.2h2.6C57.9,190.2,58.4,193,58.8,195.8
	 M59.1,197.8c0.4,2.5,0.8,4.9,1.1,7.1h-2.4l-1.2-7.1H59.1z M71.3,204.9l0.2-7.1h2.6l-0.6,7.1H71.3z M71.9,185.7l0.3-7.6h3.6
	l-0.6,7.6H71.9z M56,178.1c0.1,0.5,0.6,3.5,1.2,7.6h-2.6l-1.3-7.6H56z M75.8,204.9h-2l0.6-7.1h2.3L75.8,204.9z M78.1,185.7h-2.6
	l0.6-7.6H79L78.1,185.7z" />
  <rect id="Rectangle_1365"
        x="50.9"
        y="25.4"
        style="fill:#FAFAFA;"
        width="133.3"
        height="87.4" />
  <path id="Path_2520"
        style="fill:#382F26;"
        d="M184.2,112.9c0-0.8,0-34.1-0.1-87.4l0.1,0.1l-133.3,0h0l0.1-0.1c0,31.1,0,60.7,0,87.4
	l-0.1-0.1L184.2,112.9L50.9,113h-0.1v-0.1c0-26.8,0-56.3,0-87.4v-0.1h0.1l133.3,0h0.1v0.1C184.3,78.8,184.2,112,184.2,112.9" />
  <path id="Path_2521"
        style="fill:#645545;"
        d="M91.7,73.7l13.1,0.2c-0.2,7.1-6,12.7-13.1,12.7h-0.1L91.7,73.7z" />
  <path id="Path_2522"
        style="fill:#382F26;"
        d="M113.3,91.5c-0.1,0-0.2,0-0.3,0l-0.8,0l-2.9,0h0l0,0l-4.3-5.4l-3.5-4.4l0.1,0l-3.9,0
	l-1.1,0c-0.1,0-0.3,0-0.4,0c0.1,0,0.3,0,0.4,0l1.1,0l3.9,0h0l0,0l3.5,4.4l4.3,5.5l-0.1,0l2.9,0l0.8,0
	C113.2,91.5,113.3,91.5,113.3,91.5" />
  <path id="Path_2523"
        style="fill:#382F26;"
        d="M118.1,93c0,0.1-1.9,0.1-4.2,0.1s-4.2,0-4.2-0.1s1.9-0.1,4.2-0.1S118.1,92.9,118.1,93
	" />
  <path id="Path_2524"
        style="fill:#382F26;"
        d="M118.1,94.6c0,0.1-1.9,0.1-4.2,0.1s-4.2,0-4.2-0.1s1.9-0.1,4.2-0.1
	S118.1,94.5,118.1,94.6" />
  <path id="Path_2525"
        style="fill:#81D6A6;"
        d="M89.6,71.9l-0.2,12.9c-7.1-0.2-12.7-6.2-12.4-13.3c0.2-7.1,6.2-12.7,13.3-12.4
	c6.9,0.2,12.4,5.9,12.4,12.9H89.6z" />
  <path id="Path_2526"
        style="fill:#382F26;"
        d="M84.5,67.7c-0.1,0-0.1,0-0.2,0.1l-0.7,0.1l-2.4,0.3l0,0l0,0L78,65.1
	c-1.5-1.5-2.9-2.8-3.8-3.8L73,60.1c-0.1-0.1-0.3-0.3-0.4-0.4c0.2,0.1,0.3,0.2,0.5,0.4l1.2,1.1c1,1,2.4,2.3,3.9,3.8l3.1,3.1l-0.1,0
	l2.4-0.3l0.7-0.1C84.3,67.6,84.4,67.6,84.5,67.7" />
  <path id="Path_2527"
        style="fill:#382F26;"
        d="M69.3,59.1c0,0.1-1.9,0.1-4.2,0.1c-2.3,0-4.2,0-4.2-0.1s1.9-0.1,4.2-0.1
	C67.4,59,69.3,59,69.3,59.1" />
  <path id="Path_2528"
        style="fill:#382F26;"
        d="M69.3,60.6c0,0.1-1.9,0.1-4.2,0.1c-2.3,0-4.2,0-4.2-0.1s1.9-0.1,4.2-0.1
	C67.4,60.5,69.3,60.6,69.3,60.6" />
  <path id="Path_2529"
        style="fill:#FEC60D;"
        d="M135.5,46.5l-0.1-8c-2.4,0-4.8,1-6.6,2.6c-2.4,2.1-3.6,5.2-3.2,8.3
	c0,0.4,0.1,0.8,0.2,1.2c0,0,0,0,0,0l0,0l9.6-2.2L135.5,46.5z" />
  <path id="Path_2531"
        style="fill:#39E886;"
        d="M145.4,44c-1.4-3.1-4.4-5.1-7.8-5.4c-0.1,0-0.2,0-0.3,0c-0.1,0-0.1,0-0.2,0
	c-0.2,0-0.4,0-0.6,0h-0.1l0.1,8l0,1.9l9.6,2.1h0c0.1-0.7,0.2-1.4,0.2-2.1C146.4,46.9,146.1,45.4,145.4,44" />
  <g id="Group_1472"
     transform="translate(119.811 30.72)"
     style="opacity:0.3;">
    <g id="Group_1471">
      <g>
        <defs>
          <rect id="SVGID_1_"
                x="16.7"
                y="7.8"
                width="9.9"
                height="12" />
        </defs>
        <clipPath id="SVGID_2_">
          <use xlink:href="#SVGID_1_"
               style="overflow:visible;" />
        </clipPath>
        <g id="Group_1470"
           style="clip-path:url(#SVGID_2_);">
          <path id="Path_2532"
                d="M25.6,13.3c-1.4-3.1-4.4-5.1-7.8-5.4c-0.1,0-0.2,0-0.3,0c-0.1,0-0.1,0-0.2,0c-0.2,0-0.4,0-0.6,0h-0.1
					l0.1,8l0,1.9l9.6,2.1h0c0.1-0.7,0.2-1.4,0.2-2.1C26.6,16.1,26.2,14.6,25.6,13.3" />
        </g>
      </g>
    </g>
  </g>
  <path id="Path_2533"
        style="fill:#645545;"
        d="M136,49.3l-9.6,2.2c1.2,5.3,6.5,8.7,11.8,7.5c3.7-0.8,6.7-3.8,7.5-7.5L136,49.3" />
  <path id="Path_2534"
        style="fill:#382F26;"
        d="M173.5,47.9c0,0.1-5,0.1-11.1,0.1s-11.1-0.1-11.1-0.1s5-0.1,11.1-0.1
	S173.5,47.8,173.5,47.9" />
  <path id="Path_2535"
        style="fill:#382F26;"
        d="M173.5,45.4c0,0.1-5,0.1-11.1,0.1s-11.1-0.1-11.1-0.1s5-0.1,11.1-0.1
	S173.5,45.3,173.5,45.4" />
  <path id="Path_2536"
        style="fill:#382F26;"
        d="M173.5,42.8c0,0.1-5,0.1-11.1,0.1s-11.1-0.1-11.1-0.1s5-0.1,11.1-0.1
	S173.5,42.7,173.5,42.8" />
  <path id="Path_2537"
        style="fill:#382F26;"
        d="M173.5,50.2c0,0.1-5,0.1-11.1,0.1s-11.1-0.1-11.1-0.1s5-0.1,11.1-0.1
	S173.5,50.2,173.5,50.2" />
  <path id="Path_2538"
        style="fill:#382F26;"
        d="M166.6,52.8c0,0.1-3.4,0.1-7.6,0.1s-7.6-0.1-7.6-0.1s3.4-0.1,7.6-0.1
	S166.6,52.7,166.6,52.8" />
  <rect id="Rectangle_1368"
        x="127.9"
        y="71.2"
        style="fill:#39E886;"
        width="2.3"
        height="25.6" />
  <rect id="Rectangle_1369"
        x="132.3"
        y="79.9"
        style="fill:#39E886;"
        width="2.3"
        height="16.9" />
  <rect id="Rectangle_1370"
        x="136.7"
        y="74.3"
        style="fill:#39E886;"
        width="2.3"
        height="22.5" />
  <rect id="Rectangle_1371"
        x="141.2"
        y="72.2"
        style="fill:#39E886;"
        width="2.3"
        height="24.6" />
  <rect id="Rectangle_1372"
        x="145.6"
        y="80.4"
        style="fill:#39E886;"
        width="2.3"
        height="16.4" />
  <rect id="Rectangle_1373"
        x="150"
        y="83.6"
        style="fill:#39E886;"
        width="2.3"
        height="13.2" />
  <rect id="Rectangle_1374"
        x="154.4"
        y="73.8"
        style="fill:#39E886;"
        width="2.3"
        height="23" />
  <rect id="Rectangle_1375"
        x="158.9"
        y="77.9"
        style="fill:#39E886;"
        width="2.3"
        height="18.8" />
  <rect id="Rectangle_1376"
        x="163.3"
        y="74.6"
        style="fill:#39E886;"
        width="2.3"
        height="22.1" />
  <rect id="Rectangle_1377"
        x="167.7"
        y="81.7"
        style="fill:#39E886;"
        width="2.3"
        height="15.1" />
  <rect id="Rectangle_1378"
        x="172.1"
        y="78.8"
        style="fill:#39E886;"
        width="2.3"
        height="17.9" />
  <path id="Path_2539"
        style="fill:#382F26;"
        d="M175.4,98.5c0,0.1-10.9,0.1-24.3,0.1s-24.3,0-24.3-0.1s10.9-0.1,24.3-0.1
	S175.4,98.5,175.4,98.5" />
  <path id="Path_2540"
        style="fill:#382F26;"
        d="M131.2,100.5c-1.1,0.1-2.3,0.1-3.4,0C128.9,100.4,130,100.4,131.2,100.5" />
  <path id="Path_2541"
        style="fill:#382F26;"
        d="M136.8,100.6c-1.4,0.1-2.7,0.1-4.1,0C134.1,100.5,135.5,100.5,136.8,100.6" />
  <path id="Path_2542"
        style="fill:#382F26;"
        d="M141.6,100.6c-1.4,0.1-2.7,0.1-4.1,0C138.9,100.5,140.3,100.5,141.6,100.6" />
  <path id="Path_2543"
        style="fill:#382F26;"
        d="M146.4,100.6c-1.4,0.1-2.7,0.1-4.1,0C143.7,100.5,145.1,100.5,146.4,100.6" />
  <path id="Path_2544"
        style="fill:#382F26;"
        d="M151.2,100.6c-1.4,0.1-2.7,0.1-4.1,0C148.5,100.5,149.9,100.5,151.2,100.6" />
  <path id="Path_2545"
        style="fill:#382F26;"
        d="M156.1,100.6c-1.4,0.1-2.7,0.1-4.1,0C153.3,100.5,154.7,100.5,156.1,100.6" />
  <path id="Path_2546"
        style="fill:#382F26;"
        d="M160.9,100.6c-1.4,0.1-2.7,0.1-4.1,0C158.1,100.5,159.5,100.5,160.9,100.6" />
  <path id="Path_2547"
        style="fill:#382F26;"
        d="M165.7,100.6c-1.4,0.1-2.7,0.1-4.1,0C163,100.5,164.3,100.5,165.7,100.6" />
  <path id="Path_2548"
        style="fill:#382F26;"
        d="M170.5,100.6c-1.4,0.1-2.7,0.1-4.1,0C167.8,100.5,169.1,100.5,170.5,100.6" />
  <path id="Path_2549"
        style="fill:#382F26;"
        d="M175.3,100.6c-1.4,0.1-2.7,0.1-4.1,0C172.6,100.5,173.9,100.5,175.3,100.6" />
  <g id="Group_1475"
     transform="translate(115.649 72.085)"
     style="opacity:0.3;">
    <g id="Group_1474">
      <g>
        <defs>
          <rect id="SVGID_3_"
                x="16.7"
                y="7.8"
                width="2.3"
                height="16.9" />
        </defs>
        <clipPath id="SVGID_4_">
          <use xlink:href="#SVGID_3_"
               style="overflow:visible;" />
        </clipPath>
        <g id="Group_1473"
           style="clip-path:url(#SVGID_4_);">
          <rect id="Rectangle_1379"
                x="16.7"
                y="7.8"
                style="fill:#FFFFFF;"
                width="2.3"
                height="16.9" />
        </g>
      </g>
    </g>
  </g>
  <g id="Group_1478"
     transform="translate(124.495 64.384)"
     style="opacity:0.3;">
    <g id="Group_1477">
      <g>
        <defs>
          <rect id="SVGID_5_"
                x="16.7"
                y="7.8"
                width="2.3"
                height="24.6" />
        </defs>
        <clipPath id="SVGID_6_">
          <use xlink:href="#SVGID_5_"
               style="overflow:visible;" />
        </clipPath>
        <g id="Group_1476"
           style="clip-path:url(#SVGID_6_);">
          <rect id="Rectangle_1381"
                x="16.7"
                y="7.8"
                style="fill:#FFFFFF;"
                width="2.3"
                height="24.6" />
        </g>
      </g>
    </g>
  </g>
  <g id="Group_1481"
     transform="translate(133.341 75.817)"
     style="opacity:0.3;">
    <g id="Group_1480">
      <g>
        <defs>
          <rect id="SVGID_7_"
                x="16.7"
                y="7.8"
                width="2.3"
                height="13.2" />
        </defs>
        <clipPath id="SVGID_8_">
          <use xlink:href="#SVGID_7_"
               style="overflow:visible;" />
        </clipPath>
        <g id="Group_1479"
           style="clip-path:url(#SVGID_8_);">
          <rect id="Rectangle_1383"
                x="16.7"
                y="7.8"
                style="fill:#FFFFFF;"
                width="2.3"
                height="13.2" />
        </g>
      </g>
    </g>
  </g>
  <g id="Group_1484"
     transform="translate(142.186 70.161)"
     style="opacity:0.3;">
    <g id="Group_1483">
      <g>
        <defs>
          <rect id="SVGID_9_"
                x="16.7"
                y="7.8"
                width="2.3"
                height="18.8" />
        </defs>
        <clipPath id="SVGID_10_">
          <use xlink:href="#SVGID_9_"
               style="overflow:visible;" />
        </clipPath>
        <g id="Group_1482"
           style="clip-path:url(#SVGID_10_);">
          <rect id="Rectangle_1385"
                x="16.7"
                y="7.8"
                style="fill:#FFFFFF;"
                width="2.3"
                height="18.8" />
        </g>
      </g>
    </g>
  </g>
  <g id="Group_1487"
     transform="translate(151.032 73.906)"
     style="opacity:0.3;">
    <g id="Group_1486">
      <g>
        <defs>
          <rect id="SVGID_11_"
                x="16.7"
                y="7.8"
                width="2.3"
                height="15.1" />
        </defs>
        <clipPath id="SVGID_12_">
          <use xlink:href="#SVGID_11_"
               style="overflow:visible;" />
        </clipPath>
        <g id="Group_1485"
           style="clip-path:url(#SVGID_12_);">
          <rect id="Rectangle_1387"
                x="16.7"
                y="7.8"
                style="fill:#FFFFFF;"
                width="2.3"
                height="15.1" />
        </g>
      </g>
    </g>
  </g>
  <path id="Path_2550"
        style="fill:#39E886;"
        d="M67.1,41.9c0,1.2-1,2.2-2.2,2.2c-1.2,0-2.2-1-2.2-2.2c0-1.2,1-2.2,2.2-2.2
	C66.1,39.7,67.1,40.7,67.1,41.9C67.1,41.9,67.1,41.9,67.1,41.9" />
  <path id="Path_2551"
        style="fill:#39E886;"
        d="M105,40.1c0,0.1-7.4,0.1-16.6,0.1s-16.6-0.1-16.6-0.1S79.3,40,88.4,40
	S105,40.1,105,40.1" />
  <path id="Path_2552"
        style="fill:#39E886;"
        d="M85.2,42.8c-0.2,0-0.3,0.1-0.5,0.1c-0.3,0-0.8,0-1.4,0c-1.2,0-2.8,0-4.6,0
	s-3.4,0-4.6,0c-0.6,0-1.1,0-1.4,0c-0.2,0-0.3,0-0.5-0.1c0.2,0,0.3-0.1,0.5-0.1c0.3,0,0.8,0,1.4,0c1.2,0,2.8,0,4.6,0s3.4,0,4.6,0
	c0.6,0,1.1,0,1.4,0C84.8,42.8,85,42.8,85.2,42.8" />
  <rect id="Rectangle_1389"
        x="109.5"
        y="148.2"
        style="fill:#382F26;"
        width="29.7"
        height="1.4" />
  <path id="Path_2553"
        style="fill:#382F26;"
        d="M104.9,149.6l-5.6-20.9h23.2l5,20.9H104.9z" />
  <path id="Path_2554"
        style="fill:#F5F5F5;"
        d="M126.2,148.1h-20.7l-4.8-18.3h20.8L126.2,148.1z" />
  <path id="Path_2555"
        style="fill:#EBEBEB;"
        d="M101,131h20.8l-0.4-1.3h-20.8L101,131z" />
  <path id="Path_2556"
        style="fill:#FAFAFA;"
        d="M103.2,130.4c0,0.1,0.1,0.2,0.2,0.2c0.1,0,0.2-0.1,0.2-0.2c0-0.1-0.1-0.2-0.2-0.2l0,0
	C103.3,130.2,103.2,130.3,103.2,130.4" />
  <path id="Path_2557"
        style="fill:#FAFAFA;"
        d="M102.4,130.4c0,0.1,0.1,0.2,0.2,0.2c0.1,0,0.2-0.1,0.2-0.2c0-0.1-0.1-0.2-0.2-0.2l0,0
	C102.5,130.2,102.4,130.3,102.4,130.4C102.4,130.4,102.4,130.4,102.4,130.4" />
  <path id="Path_2558"
        style="fill:#FAFAFA;"
        d="M101.6,130.4c0,0.1,0.1,0.2,0.2,0.2c0.1,0,0.2-0.1,0.2-0.2c0-0.1-0.1-0.2-0.2-0.2l0,0
	C101.7,130.2,101.6,130.3,101.6,130.4" />
  <path id="Path_2559"
        style="fill:#39E886;"
        d="M116.6,139.1l2.3,2.6c0.9-0.6,1.4-1.6,1.4-2.6c-0.2-2-2-3.5-4.1-3.3
	c-1.8,0.2-3.1,1.6-3.3,3.3L116.6,139.1z" />
  <path id="Path_2560"
        style="fill:#382F26;"
        d="M116.3,139.5c0.2,0.2,0.5,0.4,0.7,0.7c0.4,0.4,1,1.1,1.7,1.9l0.1,0.1l-0.1,0.1
	c-1.1,0.8-2.6,0.9-3.8,0.4c-0.6-0.3-1.2-0.7-1.6-1.3c-0.4-0.5-0.6-1.1-0.6-1.7v-0.1h0.1c1.1,0,2,0,2.6,0
	C115.7,139.4,116,139.5,116.3,139.5c-0.3,0.1-0.7,0.1-1,0.1c-0.6,0-1.5,0.1-2.6,0.1l0.1-0.1c0,0.6,0.2,1.1,0.6,1.6
	c0.4,0.5,0.9,0.9,1.5,1.2c1.2,0.5,2.5,0.4,3.6-0.3l0,0.2c-0.7-0.8-1.2-1.4-1.6-1.9C116.7,140,116.5,139.8,116.3,139.5" />
  <path id="Path_2561"
        style="fill:#382F26;"
        d="M114.8,137.1c0,0.1,0.1,0.2,0.2,0.2s0.2-0.1,0.2-0.2s-0.1-0.2-0.2-0.2c0,0,0,0,0,0
	C114.9,136.9,114.8,137,114.8,137.1" />
  <path id="Path_2562"
        style="fill:#382F26;"
        d="M110.7,135.6c0.8-0.1,1.6-0.2,2.5-0.1h0.4l0,0c0.5,0.5,1,1,1.4,1.6
	c-0.6-0.4-1.1-0.9-1.6-1.4l0.1,0h-0.3C112.4,135.8,111.5,135.7,110.7,135.6" />
  <path id="Path_2563"
        style="fill:#382F26;"
        d="M106.1,138.2c-0.1-0.3-0.2-0.6-0.2-1c-0.1-0.6-0.3-1.6-0.6-2.7l0-0.1h0.1l5.2,0
	c0,0,0.2,0.2,0.1,0.1l0,0v0v0v0l0,0l0,0.1l0,0.1l0,0.2c0,0.2,0.1,0.3,0.1,0.5c0.1,0.3,0.1,0.6,0.2,0.9l0.3,1.8l0,0.1h-0.1
	c-1.5,0-2.9,0-3.8,0l-1,0C106.3,138.3,106.2,138.2,106.1,138.2c0.1,0,0.3,0,0.4,0l1.1,0c0.9,0,2.2-0.1,3.7-0.1l-0.1,0.1
	c-0.1-0.6-0.2-1.1-0.3-1.8c-0.1-0.3-0.1-0.6-0.2-0.9l-0.1-0.5l0-0.2l0-0.1l0-0.1l0,0v0v0l0,0l0.1,0.1h-5.2l0.1-0.1
	c0.2,1.1,0.3,2,0.4,2.7C106,137.5,106,137.9,106.1,138.2" />
  <path id="Path_2564"
        style="fill:#382F26;"
        d="M114.5,141.3c0,0.1,0.1,0.2,0.2,0.2s0.2-0.1,0.2-0.2s-0.1-0.2-0.2-0.2c0,0,0,0,0,0
	C114.6,141.1,114.5,141.1,114.5,141.3" />
  <path id="Path_2565"
        style="fill:#382F26;"
        d="M111,141.3c1.2-0.2,2.5-0.2,3.7,0C113.5,141.4,112.2,141.4,111,141.3" />
  <path id="Path_2566"
        style="fill:#382F26;"
        d="M106.1,142.9c-0.1-0.2-0.2-0.5-0.2-0.7c-0.1-0.5-0.3-1.1-0.6-2l0-0.1h0.1
	c1.4,0,3.3,0,5.3-0.1c-0.1-0.1,0.2,0.1,0.1,0.1l0,0v0v0l0,0l0,0l0,0.1l0,0.2l0.1,0.4c0.1,0.2,0.1,0.5,0.2,0.7
	c0.1,0.5,0.2,0.9,0.3,1.3l0,0.2h-0.2c-1.6,0-2.9,0-3.9,0l-1.1,0C106.3,142.9,106.2,142.9,106.1,142.9c0.1,0,0.3,0,0.4,0l1.1,0
	c0.9,0,2.3-0.1,3.8-0.1l-0.1,0.2c-0.1-0.4-0.2-0.9-0.3-1.3c-0.1-0.2-0.1-0.5-0.2-0.7l-0.1-0.4l0-0.2l0-0.1l0,0l0,0v0v0l0,0
	c0,0,0.2,0.2,0.1,0.1c-2,0-3.9,0-5.3,0l0.1-0.1c0.2,0.8,0.3,1.5,0.5,2C106,142.4,106,142.7,106.1,142.9" />
  <path id="Path_2567"
        style="fill:#382F26;"
        d="M106.5,135.7c1.2-0.2,2.4-0.2,3.5,0C108.8,135.8,107.6,135.8,106.5,135.7" />
  <path id="Path_2568"
        style="fill:#382F26;"
        d="M106.5,136.3c1.2-0.2,2.4-0.2,3.5,0C108.9,136.4,107.7,136.4,106.5,136.3" />
  <path id="Path_2569"
        style="fill:#382F26;"
        d="M106.6,136.8c1.1-0.2,2.3-0.2,3.4,0C108.9,137,107.8,137,106.6,136.8" />
  <path id="Path_2570"
        style="fill:#382F26;"
        d="M106.6,141.2c1.1-0.2,2.2-0.2,3.4,0C108.8,141.4,107.7,141.4,106.6,141.2" />
  <path id="Path_2571"
        style="fill:#382F26;"
        d="M106.8,141.9c0.9-0.2,1.9-0.2,2.9,0C108.7,142,107.7,142,106.8,141.9" />
  <path id="Path_2572"
        style="fill:#382F26;"
        d="M74.3,149.6v2.7h1.8v55.5h3.7v-55.5h19.5v55.5h3.7v-55.5h84.7v55.4h3.7v-55.4h1.6
	v-2.7L74.3,149.6z" />
  <path id="Path_2573"
        style="fill:#382F26;"
        d="M154.1,170.2c1.6,0.1,3.2,0.1,4.8,0C157.3,170.1,155.7,170.1,154.1,170.2" />
  <path id="Path_2574"
        style="fill:#645545;"
        d="M119.2,170.8c-0.1,0-0.1,0-0.1-0.1s0.1-0.1,0.1-0.1s0.1,0,0.1,0.1
	S119.3,170.8,119.2,170.8" />
  <path id="Path_2575"
        style="fill:#FCDF9E;"
        d="M142.7,121.4l-13.7-14l-0.3-1.5c-0.1-0.3-0.1-0.6-0.2-0.9c-0.1-0.4-0.1-0.8,0-1.2
	c0.1-0.5,0.2-1,0.4-1.5c0.2-0.4-0.1-0.9-0.5-0.7c-0.8,0.7-1.2,1.7-1.2,2.8c-0.1,1.5-1.4-0.5-1.9-1.2s-2.1-2.9-2.4-2.9
	c-0.5,0-0.6,0.5-0.1,1.2s1.8,2.9,1.5,3.2h0c-0.8-0.1-1.5,0.2-1.9,0.9c-0.3,0.7-0.7,1.6-0.4,2c0.7,0.8,1.4,1.6,2.2,2.3l0.5,0.4
	c0,0,11.9,17.2,14.5,17.8c1.6,0.3,26.5,2.4,26.5,2.4l1.9-6.9L142.7,121.4z" />
  <path id="Path_2576"
        style="fill:#FCDF9E;"
        d="M121.8,107.3l1.3,1.2c0.1,0.1,0.3,0.3,0.5,0.4c0.2,0.1,0.5,0,0.6-0.2
	c0.1-0.1,0.1-0.3,0-0.4c-0.1-0.2-0.2-0.3-0.3-0.5l-1.2-1.5" />
  <path id="Path_2577"
        style="fill:#D9C28D;"
        d="M122.6,106.4c0,0,0.3,0.2,0.6,0.6l0.6,0.7c0.1,0.1,0.3,0.3,0.4,0.5
	c0.1,0.2,0.1,0.5,0,0.7c-0.2,0.2-0.5,0.3-0.7,0.2c-0.2-0.1-0.4-0.2-0.5-0.4l-0.7-0.7c-0.2-0.2-0.4-0.4-0.6-0.7
	c0.3,0.1,0.5,0.3,0.7,0.5l0.7,0.6c0.1,0.1,0.3,0.2,0.4,0.3c0.1,0.1,0.3,0,0.4-0.1c0.1-0.1,0.1-0.3,0-0.4c-0.1-0.2-0.2-0.3-0.3-0.4
	l-0.6-0.7C122.9,106.9,122.8,106.6,122.6,106.4" />
  <path id="Path_2578"
        style="fill:#FCDF9E;"
        d="M122.7,106.4l1.3,1.2c0.1,0.1,0.3,0.3,0.5,0.4c0.2,0.1,0.5,0,0.6-0.2
	c0.1-0.1,0.1-0.3,0-0.4c-0.1-0.2-0.2-0.3-0.3-0.5l-1.2-1.5" />
  <path id="Path_2579"
        style="fill:#D9C28D;"
        d="M123.6,105.5c0,0,0.3,0.2,0.6,0.6l0.6,0.7c0.1,0.1,0.3,0.3,0.4,0.5
	c0.1,0.2,0.1,0.5,0,0.7c-0.2,0.2-0.5,0.3-0.7,0.2c-0.2-0.1-0.4-0.2-0.5-0.4l-0.7-0.7c-0.2-0.2-0.4-0.4-0.6-0.7
	c0.3,0.1,0.5,0.3,0.7,0.5l0.7,0.6c0.1,0.1,0.3,0.2,0.4,0.3c0.1,0.1,0.3,0,0.4-0.1c0.1-0.1,0.1-0.3,0-0.4c-0.1-0.2-0.2-0.3-0.3-0.4
	l-0.6-0.7C123.8,106,123.7,105.7,123.6,105.5" />
  <path id="Path_2580"
        style="fill:#FCDF9E;"
        d="M123.7,105.7l1.3,1.2c0.1,0.1,0.3,0.3,0.5,0.4c0.2,0.1,0.5,0,0.6-0.2
	c0.1-0.1,0.1-0.3,0-0.4c-0.1-0.2-0.2-0.3-0.3-0.5l-1.2-1.5" />
  <path id="Path_2581"
        style="fill:#D9C28D;"
        d="M124.5,104.8c0,0,0.3,0.2,0.6,0.6l0.6,0.7c0.1,0.1,0.3,0.3,0.4,0.5
	c0.1,0.2,0.1,0.5,0,0.7c-0.2,0.2-0.5,0.3-0.7,0.2c-0.2-0.1-0.4-0.2-0.5-0.4l-0.7-0.7c-0.2-0.2-0.4-0.4-0.6-0.7
	c0.3,0.1,0.5,0.3,0.7,0.5l0.7,0.6c0.1,0.1,0.3,0.2,0.4,0.3c0.1,0.1,0.3,0,0.4-0.1c0.1-0.1,0.1-0.3,0-0.4c-0.1-0.2-0.2-0.3-0.3-0.4
	l-0.6-0.7C124.8,105.3,124.7,105,124.5,104.8" />
  <path id="Path_2582"
        style="fill:#D9C28D;"
        d="M125.7,107.8c0,0,0.3-0.1,0.8,0l-0.1,0.1c-0.1-0.3-0.1-0.6,0-0.9
	c0.1-0.4,0.2-0.8,0.5-1.1c0.2-0.2,0.4-0.3,0.4-0.3c-0.3,0.4-0.5,0.9-0.6,1.4c0,0.3,0,0.5,0,0.8l0,0.2l-0.2-0.1
	C126,107.9,125.7,107.9,125.7,107.8" />
  <path id="Path_2583"
        style="fill:#FCDF9E;"
        d="M160.7,100.5l0.1,19.1l-7.5,0.4l-0.3-4.6c0,0-3.6,0.5-4.4-2.2
	c-0.5-1.7-0.4-15.1-0.4-15.1L160.7,100.5z" />
  <path id="Path_2584"
        style="fill:#382F26;"
        d="M146.4,100c0.6,1.1,3.2,3.2,3.2,3.2l1.2,3.2c1-0.8,2.4-0.8,2.7,1.1
	c0.2,1.3-1.4,1.6-1.4,1.6c0.8,1.6,1.8,3.1,3,4.5c0.9,1.3,2.4,2,4,1.9h1.8c0,0,3.7-3.1,2.9-11.1s-8-5.7-9.7-7.7
	C151.2,93.3,144.6,96.2,146.4,100" />
  <path id="Path_2585"
        style="fill:#645545;"
        d="M163.3,111c-0.3,0-0.6,0-0.9,0c-0.8-0.2-1.5-0.6-2.1-1.1c-0.9-0.8-1.6-1.8-2.2-2.9
	c-0.7-1.3-1.6-2.4-2.7-3.4c-1.3-0.7-2.7-1.2-4.1-1.3c-1.2-0.2-2.3-0.6-3.3-1.3c-0.7-0.5-1.1-1.2-1.3-2c-0.1-0.3-0.1-0.6,0-0.9
	c0,0.3,0,0.6,0.1,0.9c0.2,0.8,0.7,1.5,1.3,1.9c1,0.7,2.1,1.1,3.3,1.2c1.5,0.2,2.9,0.6,4.2,1.3c1.2,0.9,2.1,2.1,2.8,3.4
	c0.6,1.1,1.3,2,2.1,2.9c0.6,0.5,1.3,0.9,2.1,1.1c0.2,0,0.4,0.1,0.6,0.1C163.2,111,163.3,111,163.3,111" />
  <path id="Path_2586"
        style="fill:#645545;"
        d="M163.7,104.5c0,0-0.1,0-0.4-0.1c-0.4-0.1-0.7-0.2-1.1-0.2c-0.6-0.1-1.2,0.1-1.7,0.4
	c-0.3,0.2-0.5,0.5-0.6,0.9c-0.1,0.4,0,0.8,0.3,1.1c0.2,0.1,0.4,0.2,0.6,0.2c0.2,0,0.5-0.1,0.7-0.2c0.4-0.3,0.8-0.7,0.9-1.2
	c0.5-1.5-0.3-3.1-1.8-3.6c-0.2-0.1-0.4-0.1-0.6-0.1c-0.6,0-1.3,0-1.9,0.2c-0.6,0.2-1.3,0.4-1.9,0.5c-0.7,0.1-1.4,0.1-2,0
	c-0.7-0.1-1.3-0.3-2-0.5c-0.6-0.3-1.1-0.8-1.3-1.4c-0.2-0.6,0-1.3,0.5-1.8c0.5-0.4,1.2-0.5,1.8-0.3c0.3,0.1,0.5,0.3,0.6,0.6
	c0.1,0.3,0.2,0.6,0.1,0.9c-0.1,0.6-0.4,1.1-0.9,1.4c-0.4,0.3-1,0.4-1.5,0.4c-0.5,0-0.9-0.1-1.4-0.2c-0.8-0.2-1.5-0.7-2.1-1.3
	c-0.4-0.4-0.8-0.9-1-1.5c-0.2-0.4-0.3-0.7-0.4-1.1c0-0.3-0.1-0.4-0.1-0.4s0,0.1,0.1,0.4c0.1,0.4,0.2,0.7,0.4,1.1
	c0.3,0.5,0.6,1,1.1,1.5c0.6,0.6,1.3,1,2,1.2c0.4,0.1,0.9,0.2,1.4,0.2c0.5,0,1-0.1,1.4-0.4c0.5-0.3,0.8-0.8,0.8-1.3
	c0.1-0.6-0.2-1.1-0.7-1.4c-0.5-0.3-1.2-0.2-1.6,0.2c-0.4,0.5-0.6,1.1-0.4,1.7c0.2,0.6,0.7,1.1,1.3,1.4c0.6,0.3,1.3,0.5,1.9,0.5
	c0.7,0.1,1.3,0.1,2,0c0.6-0.1,1.3-0.3,1.9-0.5c0.6-0.2,1.3-0.3,1.9-0.2c1.6,0.2,2.8,1.6,2.6,3.2c0,0.2-0.1,0.4-0.1,0.6
	c-0.2,0.5-0.5,0.9-0.9,1.2c-0.2,0.1-0.5,0.2-0.7,0.2c-0.2,0-0.5-0.1-0.6-0.3c-0.3-0.3-0.5-0.8-0.4-1.2c0.1-0.4,0.3-0.7,0.6-0.9
	c0.5-0.3,1.2-0.5,1.8-0.4c0.4,0,0.8,0.1,1.1,0.3C163.6,104.4,163.7,104.5,163.7,104.5" />
  <path id="Path_2587"
        style="fill:#81D6A6;"
        d="M154.2,203.1l-2.4-3.1l5.8-4.6l3.6,4.5l-0.3,0.3c-1.5,1.4-7.9,6.8-9.2,7.3
	C150.2,208.1,154.2,203.1,154.2,203.1" />
  <g id="Group_1490"
     transform="translate(134.645 192.009)"
     style="opacity:0.4;">
    <g id="Group_1489">
      <g>
        <defs>
          <rect id="SVGID_13_"
                x="16.7"
                y="7.8"
                width="9.9"
                height="7.8" />
        </defs>
        <clipPath id="SVGID_14_">
          <use xlink:href="#SVGID_13_"
               style="overflow:visible;" />
        </clipPath>
        <g id="Group_1488"
           style="clip-path:url(#SVGID_14_);">
          <path id="Path_2588"
                style="fill:#FFFFFF;"
                d="M17.7,13.6c0,0-1.3,1.9-0.9,2s7.1-5.1,9.8-7.7l-0.1-0.1L18.8,14
					C18.8,14,18,13.4,17.7,13.6" />
        </g>
      </g>
    </g>
  </g>
  <path id="Path_2589"
        style="fill:#382F26;"
        d="M161.2,199.7C161.2,199.7,161.2,199.8,161.2,199.7l-0.4,0.3l-1,0.9
	c-0.9,0.7-2.1,1.7-3.4,2.8s-2.6,2-3.5,2.7l-1.1,0.8l-0.3,0.2c0,0-0.1,0-0.1,0.1c0,0,0.1-0.1,0.1-0.1l0.3-0.2l1.1-0.8
	c0.9-0.7,2.2-1.6,3.5-2.7s2.6-2.1,3.5-2.8l1-0.9l0.3-0.2C161.1,199.8,161.2,199.7,161.2,199.7" />
  <path id="Path_2590"
        style="fill:#382F26;"
        d="M153.5,206.1c-0.2-0.1-0.4-0.3-0.6-0.3c-0.2-0.1-0.5-0.1-0.7-0.1
	C152.7,205.5,153.2,205.7,153.5,206.1" />
  <path id="Path_2591"
        style="fill:#382F26;"
        d="M154.5,203.8c-0.1,0-0.2,0-0.4-0.1c-0.2-0.1-0.3-0.1-0.3-0.2c0.1,0,0.2,0,0.4,0.1
	C154.4,203.7,154.5,203.8,154.5,203.8" />
  <path id="Path_2592"
        style="fill:#382F26;"
        d="M154.8,203.2c0,0-0.1,0-0.3,0s-0.3,0-0.3-0.1s0.1,0,0.3,0S154.8,203.2,154.8,203.2" />
  <path id="Path_2593"
        style="fill:#382F26;"
        d="M154.7,202.4c0,0-0.1,0.1-0.3,0.3s-0.3,0.2-0.3,0.2s0.1-0.1,0.3-0.3
	S154.6,202.4,154.7,202.4" />
  <path id="Path_2594"
        style="fill:#382F26;"
        d="M154.5,202c-0.1,0.3-0.4,0.5-0.6,0.6c0,0,0.2-0.1,0.3-0.3S154.4,201.9,154.5,202" />
  <path id="Path_2595"
        style="fill:#382F26;"
        d="M153.9,203.5c-0.1,0.1-0.2,0.2-0.4,0.3c-0.1,0.1-0.3,0.2-0.5,0.2
	c-0.1,0-0.2,0.1-0.3,0.1c-0.1,0-0.1,0-0.2,0c-0.1,0-0.1-0.1-0.1-0.2c0.2-0.4,0.6-0.6,1-0.5C153.7,203.4,153.8,203.5,153.9,203.5
	c0,0.1,0,0.1,0,0.1c-0.1-0.1-0.3-0.1-0.4-0.2c-0.2,0-0.3,0-0.5,0c-0.2,0.1-0.3,0.2-0.4,0.4c0,0.1,0.1,0.1,0.2,0.1
	c0.1,0,0.2,0,0.3-0.1c0.2-0.1,0.3-0.1,0.5-0.2C153.8,203.6,153.9,203.5,153.9,203.5" />
  <path id="Path_2596"
        style="fill:#382F26;"
        d="M153.8,203.6c0,0-0.1,0-0.2-0.2c-0.1-0.1-0.1-0.2-0.1-0.4c0-0.2,0-0.3,0.2-0.4
	c0.1,0,0.2,0,0.3,0.1c0,0.1,0.1,0.1,0.1,0.2c0,0.1,0,0.2,0,0.4C154,203.3,153.9,203.5,153.8,203.6c0,0,0-0.2,0.1-0.4
	c0-0.1,0-0.2,0-0.3c0-0.1-0.1-0.3-0.2-0.2c-0.1,0.1-0.1,0.2-0.1,0.4c0,0.1,0,0.2,0.1,0.3C153.7,203.4,153.8,203.5,153.8,203.6" />
  <path id="Path_2597"
        style="fill:#382F26;"
        d="M159.8,198.2c0,0-0.2,0.1-0.4,0.4c-0.6,0.6-0.9,1.6-0.6,2.4c0.1,0.3,0.2,0.5,0.2,0.5
	c0,0-0.1-0.1-0.1-0.1c-0.1-0.1-0.1-0.2-0.2-0.4c-0.3-0.9-0.1-1.9,0.6-2.5c0.1-0.1,0.2-0.2,0.3-0.2
	C159.7,198.2,159.8,198.2,159.8,198.2" />
  <path id="Path_2598"
        style="fill:#382F26;"
        d="M157.3,196.3c0.7,0.8,1.3,1.5,1.9,2.4c-0.4-0.4-0.7-0.8-1-1.2
	C157.9,197.1,157.6,196.7,157.3,196.3" />
  <path id="Path_2599"
        style="fill:#382F26;"
        d="M157.9,201.5c-0.5,0.6-1,1-1.7,1.4c0,0,0.4-0.3,0.9-0.7S157.9,201.5,157.9,201.5" />
  <path id="Path_2600"
        style="fill:#382F26;"
        d="M159,200.6c0,0,0,0.1,0.1,0.2s0.1,0.2,0,0.2s-0.1-0.1-0.1-0.2S159,200.6,159,200.6" />
  <path id="Path_2601"
        style="fill:#382F26;"
        d="M159.1,199.8c0,0,0,0.1,0,0.2s0,0.2-0.1,0.2s0-0.1,0-0.2S159,199.8,159.1,199.8" />
  <path id="Path_2602"
        style="fill:#382F26;"
        d="M159.5,199c0,0-0.1,0.1-0.1,0.2s-0.1,0.2-0.1,0.2s0-0.1,0-0.2S159.5,199,159.5,199" />
  <path id="Path_2603"
        style="fill:#382F26;"
        d="M159.8,198.6c0,0,0,0.1,0,0.1s-0.1,0.1-0.1,0.1s0-0.1,0-0.1S159.8,198.5,159.8,198.6" />
  <g id="Group_1493"
     transform="translate(136.583 189.877)"
     style="opacity:0.3;">
    <g id="Group_1492">
      <g>
        <defs>
          <rect id="SVGID_15_"
                x="16.7"
                y="7.8"
                width="6.4"
                height="4.9" />
        </defs>
        <clipPath id="SVGID_16_">
          <use xlink:href="#SVGID_15_"
               style="overflow:visible;" />
        </clipPath>
        <g id="Group_1491"
           style="clip-path:url(#SVGID_16_);">
          <path id="Path_2604"
                d="M23.1,8.2l-5.9,4.5L16.7,12l6.2-4.2L23.1,8.2z" />
        </g>
      </g>
    </g>
  </g>
  <path id="Path_2605"
        style="fill:#81D6A6;"
        d="M127.4,206.2l0-4l7.4,0l0,5.8l-0.5,0c-2,0.1-10.4,0.5-11.8,0.1
	C121.1,207.7,127.4,206.2,127.4,206.2" />
  <g id="Group_1496"
     transform="translate(105.704 199.282)"
     style="opacity:0.4;">
    <g id="Group_1495">
      <g>
        <defs>
          <rect id="SVGID_17_"
                x="16.7"
                y="7.8"
                width="12.5"
                height="1.3" />
        </defs>
        <clipPath id="SVGID_18_">
          <use xlink:href="#SVGID_17_"
               style="overflow:visible;" />
        </clipPath>
        <g id="Group_1494"
           style="clip-path:url(#SVGID_18_);">
          <path id="Path_2606"
                style="fill:#FFFFFF;"
                d="M18.6,7.8c0,0-2.2,0.6-1.9,1s8.8,0.3,12.5,0l0-0.2l-9.9,0.1
					C19.3,8.7,19.1,7.8,18.6,7.8" />
        </g>
      </g>
    </g>
  </g>
  <path id="Path_2607"
        style="fill:#382F26;"
        d="M135,207.9c0,0-0.1,0-0.1,0l-0.4,0l-1.4,0.1c-1.1,0-2.7,0.1-4.5,0.1s-3.3,0-4.5-0.1
	l-1.4-0.1l-0.4,0c0,0-0.1,0-0.1,0c0,0,0.1,0,0.1,0h0.4l1.4,0c1.1,0,2.7,0,4.5,0s3.3,0,4.5-0.1l1.4,0l0.4,0
	C134.9,207.9,135,207.9,135,207.9" />
  <path id="Path_2608"
        style="fill:#382F26;"
        d="M125,208.1c-0.1-0.5-0.3-0.9-0.7-1.2C124.7,207.2,125,207.6,125,208.1" />
  <path id="Path_2609"
        style="fill:#382F26;"
        d="M127.2,207c0,0-0.1-0.1-0.2-0.3s-0.2-0.3-0.2-0.3s0.1,0.1,0.2,0.3
	S127.2,207,127.2,207" />
  <path id="Path_2610"
        style="fill:#382F26;"
        d="M127.8,206.7c0,0-0.1-0.1-0.3-0.2s-0.2-0.2-0.2-0.2s0.1,0.1,0.3,0.2
	S127.8,206.7,127.8,206.7" />
  <path id="Path_2611"
        style="fill:#382F26;"
        d="M128.2,206c-0.3,0.1-0.5,0.1-0.8,0c0.1,0,0.3-0.1,0.4,0
	C127.9,205.9,128,205.9,128.2,206" />
  <path id="Path_2612"
        style="fill:#382F26;"
        d="M128.3,205.5c-0.1,0.1-0.3,0.1-0.4,0.1c-0.2,0-0.3,0-0.4-0.1c0.1,0,0.3,0,0.4,0
	C128,205.5,128.1,205.5,128.3,205.5" />
  <path id="Path_2613"
        style="fill:#382F26;"
        d="M126.9,206.4c-0.2,0-0.3,0-0.5,0c-0.2,0-0.3-0.1-0.5-0.1c-0.1,0-0.2-0.1-0.3-0.1
	c-0.1,0-0.1-0.1-0.1-0.1c0-0.1,0-0.1,0.1-0.2c0.4-0.2,0.8-0.1,1.1,0.3C126.8,206.1,126.8,206.2,126.9,206.4
	c-0.1,0.1-0.1,0.1-0.1,0.1c0-0.1-0.1-0.3-0.2-0.4c-0.1-0.1-0.3-0.2-0.4-0.3c-0.2-0.1-0.4,0-0.6,0c-0.1,0.1,0,0.1,0,0.2
	c0.1,0,0.2,0.1,0.3,0.1c0.2,0.1,0.3,0.1,0.5,0.1C126.7,206.3,126.9,206.3,126.9,206.4" />
  <path id="Path_2614"
        style="fill:#382F26;"
        d="M126.8,206.4c-0.1-0.1-0.1-0.2-0.1-0.3c0-0.1,0.1-0.2,0.1-0.3
	c0.1-0.1,0.2-0.2,0.4-0.2c0.1,0,0.2,0.1,0.1,0.2c0,0.1,0,0.1-0.1,0.2c-0.1,0.1-0.1,0.2-0.2,0.3C127.1,206.3,127,206.3,126.8,206.4
	c0,0,0.1-0.1,0.3-0.2c0.1-0.1,0.1-0.2,0.2-0.3c0.1-0.1,0.1-0.3,0-0.3s-0.2,0.1-0.3,0.2c-0.1,0.1-0.1,0.2-0.1,0.3
	C126.8,206.2,126.8,206.3,126.8,206.4" />
  <path id="Path_2615"
        style="fill:#382F26;"
        d="M134.8,205.8c0,0-0.2,0-0.5,0c-0.9,0.1-1.6,0.7-1.9,1.6c-0.1,0.3-0.1,0.5-0.1,0.5
	c0,0,0-0.1,0-0.1c0-0.1,0-0.3,0.1-0.4c0.3-0.9,1.1-1.5,2-1.6c0.1,0,0.3,0,0.4,0C134.8,205.8,134.8,205.8,134.8,205.8" />
  <path id="Path_2616"
        style="fill:#382F26;"
        d="M134.1,202.8c0.1,1,0.1,2,0.1,3.1C134,204.8,134,203.8,134.1,202.8" />
  <path id="Path_2617"
        style="fill:#382F26;"
        d="M131.3,207.3c-0.7,0.1-1.5,0.1-2.2,0c0,0,0.5,0,1.1,0S131.3,207.3,131.3,207.3" />
  <path id="Path_2618"
        style="fill:#382F26;"
        d="M132.7,207.3c0,0,0,0.1-0.1,0.2s-0.1,0.2-0.1,0.2s0-0.1,0-0.2
	S132.7,207.3,132.7,207.3" />
  <path id="Path_2619"
        style="fill:#382F26;"
        d="M133.3,206.6c0,0,0,0.1-0.1,0.2s-0.2,0.1-0.2,0.1s0-0.1,0.1-0.2
	S133.3,206.6,133.3,206.6" />
  <path id="Path_2620"
        style="fill:#382F26;"
        d="M134.1,206.3c0,0-0.1,0-0.2,0.1s-0.2,0.1-0.2,0.1s0-0.1,0.2-0.2
	S134.1,206.2,134.1,206.3" />
  <path id="Path_2621"
        style="fill:#382F26;"
        d="M134.6,206.1C134.6,206.1,134.6,206.2,134.6,206.1c-0.2,0.1-0.2,0.1-0.2,0.1
	s0-0.1,0.1-0.1S134.6,206.1,134.6,206.1" />
  <g id="Group_1499"
     transform="translate(110.739 196.838)"
     style="opacity:0.3;">
    <g id="Group_1498">
      <g>
        <defs>
          <rect id="SVGID_19_"
                x="16.7"
                y="7.8"
                width="7.5"
                height="0.9" />
        </defs>
        <clipPath id="SVGID_20_">
          <use xlink:href="#SVGID_19_"
               style="overflow:visible;" />
        </clipPath>
        <g id="Group_1497"
           style="clip-path:url(#SVGID_20_);">
          <path id="Path_2622"
                d="M24.2,8.7l-7.5,0l0-0.9l7.5,0L24.2,8.7z" />
        </g>
      </g>
    </g>
  </g>
  <path id="Path_2623"
        style="fill:#FCDF9E;"
        d="M145.8,137.8l-3,9c-0.8,2.4-2.9,2.8-5.5,2.8h-16.5v-3.7l15.1-2.2l3.6-9.2L145.8,137.8
	z" />
  <path id="Path_2624"
        style="fill:#FCDF9E;"
        d="M119,145.1l-1.3-0.6c0,0-1.4-2.7-1.7-2.6s-0.4,0.9,0.1,2.2l-1.7-0.5
	c0,0-3.8,1.7-3.6,2c0.2,0.4,0.7,0.6,1.1,0.5c0.1,0,0.1-0.1,0.2-0.1c0.8-0.4,1.9-0.9,1.9-0.9l2,0.6l-2.6,0.3l-2.5,2.2
	c0.5,0.3,1.1,0.3,1.5,0l6.4,1.4l2,0.1v-3.7L119,145.1z" />
  <path id="Path_2625"
        style="fill:#D9C28D;"
        d="M112.3,148.1c0,0,0.1-0.2,0.4-0.4c0.1-0.1,0.3-0.3,0.5-0.4c0.2-0.1,0.5-0.2,0.7-0.2
	c0.7,0,1.3-0.2,1.9-0.3c-0.7,0-1.3,0-2,0.1c-0.3,0-0.5,0.1-0.8,0.2c-0.2,0.1-0.3,0.3-0.5,0.4C112.5,147.7,112.4,147.9,112.3,148.1" />
  <path id="Path_2626"
        style="fill:#D9C28D;"
        d="M113.3,148.3c0,0,0-0.1,0.2-0.2s0.5-0.1,0.8-0.1c0.4,0,0.8,0,1.1-0.1
	c-0.4-0.1-0.8-0.2-1.1-0.1c-0.3,0-0.5,0.1-0.8,0.2c-0.1,0-0.2,0.1-0.2,0.2C113.3,148.3,113.3,148.3,113.3,148.3" />
  <path id="Path_2627"
        style="fill:#81D6A6;"
        d="M147.2,135.8l-1.3,4.3l-8.1-3.7c0.3-0.9,1.6-4.9,4.2-11.3c1.4-3.6,4.6-6.1,8.4-6.7
	c2.6-0.5,5.1-0.7,7.7-0.8c4.5,0.1,11.2,2.9,12.1,7.3c0.7,3.4,0,9.4,0,16.6l-0.6,13.9l-23.2,0.8L147.2,135.8z" />
  <g id="Group_1502"
     transform="translate(136.309 130.393)"
     style="opacity:0.3;">
    <g id="Group_1501">
      <g>
        <defs>
          <rect id="SVGID_21_"
                x="16.7"
                y="7.8"
                width="17.2"
                height="19.2" />
        </defs>
        <clipPath id="SVGID_22_">
          <use xlink:href="#SVGID_21_"
               style="overflow:visible;" />
        </clipPath>
        <g id="Group_1500"
           style="clip-path:url(#SVGID_22_);">
          <path id="Path_2628"
                d="M33.9,8c-2.8,0.6-5.7,0-8.6-0.2c-1.7-0.1-3.7-0.3-5.1,0.8c-1,1-1.7,2.2-1.9,3.6c-1,4.6-1.6,9.2-1.7,13.9
					l14,0.8L33.9,8z" />
        </g>
      </g>
    </g>
  </g>
  <path id="Path_2629"
        style="fill:#382F26;"
        d="M146.6,120.8c0,0,0.2,0,0.6,0.2c0.5,0.2,1,0.6,1.3,1.1c0.5,0.7,0.8,1.6,0.8,2.4
	c0,1.1-0.1,2.1-0.2,3.2c-0.3,1.9-0.8,3.8-1.3,5.7l-0.5,1.7c-0.1,0.2-0.1,0.4-0.1,0.6c0.1-0.2,0.2-0.4,0.2-0.6c0.1-0.4,0.3-1,0.5-1.7
	c0.6-1.9,1-3.8,1.4-5.7c0.2-1.1,0.3-2.1,0.2-3.2c0-0.9-0.3-1.8-0.9-2.5c-0.4-0.5-0.9-0.9-1.4-1.1c-0.2-0.1-0.3-0.1-0.5-0.1
	C146.7,120.7,146.6,120.7,146.6,120.8" />
  <path id="Path_2630"
        style="fill:#382F26;"
        d="M138.1,135.4c0.4,0.2,0.7,0.5,1.1,0.7c0.7,0.4,1.7,0.9,2.8,1.4s2.2,0.9,2.9,1.2
	c0.4,0.2,0.8,0.3,1.2,0.4c-0.4-0.2-0.8-0.4-1.2-0.6c-0.7-0.3-1.8-0.8-2.9-1.3s-2.1-1-2.9-1.3C138.9,135.7,138.5,135.5,138.1,135.4" />
  <path id="Path_2631"
        style="fill:#382F26;"
        d="M134.4,157.4c-4,2.2-5.5,7.1-3.4,11.1l20.2,34.7l9.3-5.6l-15.7-31.3l11.4-7.4" />
  <path id="Path_2632"
        style="fill:#382F26;"
        d="M159,155.6l-27.7,1c-4.5,0.2-8.1,3.9-8,8.4l1.2,39.6l11.7,0l-0.4-37.4l23.3-0.6
	L159,155.6z" />
  <path id="Path_2633"
        style="fill:#645545;"
        d="M135.7,168.5c0,0.1,0,0.2,0,0.4c0,0.3,0,0.6,0,1.1c0,0.9,0.1,2.2,0.1,3.9
	c0.1,3.3,0.1,7.8,0.1,12.8s0,9.5,0.1,12.8c0,1.6,0,2.9,0,3.9c0,0.4,0,0.8,0,1.1c0,0.1,0,0.2,0,0.4c0-0.1,0-0.2,0-0.4
	c0-0.3,0-0.6,0-1.1c0-0.9-0.1-2.2-0.1-3.9c-0.1-3.3-0.1-7.8-0.1-12.8s0-9.5-0.1-12.8c0-1.6,0-2.9,0-3.9c0-0.4,0-0.8,0-1.1
	C135.7,168.8,135.7,168.6,135.7,168.5" />
  <path id="Path_2634"
        style="fill:#645545;"
        d="M171,130.5h-8.4c-3.4,0-6.1,2.7-6.1,6.1v29.3h-16.8c-2.3,0-4.2,1.9-4.2,4.2h38.3
	c0,0,0,0,0,0c1.9-0.1,3.3-1.6,3.3-3.5v-30C177.1,133.3,174.4,130.5,171,130.5" />
  <path id="Path_2635"
        style="fill:#382F26;"
        d="M158.9,131.5c0.1,0,0.1,8.6,0.1,19.2s-0.1,19.2-0.1,19.2s-0.1-8.6-0.1-19.2
	S158.8,131.5,158.9,131.5" />
  <path id="Path_2636"
        style="fill:#645545;"
        d="M157.8,200.9v-30.7h-2.7v30.7c-1.7,3.3-5.6,5.5-10.3,7.3h24.3
	C164.2,206.2,159.7,204.6,157.8,200.9" />
  <path id="Path_2637"
        style="fill:#382F26;"
        d="M29.2,196.9c0-0.1,0-0.1,0.1-0.2l0.2-0.5c0.3-0.7,0.5-1.4,0.7-2.1
	c0.6-2.7,0.6-5.4-0.1-8.1c-0.4-1.8-0.9-3.6-1.5-5.4c-0.6-1.9-1.4-4-2-6.2c-0.7-2.3-1-4.7-1-7.1c0.2-2.6,0.8-5.1,1.6-7.5
	c0.9-2.4,1.5-4.9,1.9-7.4c0.3-2.4-0.2-4.7-1.4-6.8c-1.1-2-2.4-3.7-3.5-5.5c-0.9-1.6-1.6-3.4-2.1-5.2c-0.6-2.7-0.7-5.4-0.1-8.1
	c0.2-1,0.5-1.9,0.8-2.9c0,0.1,0,0.1,0,0.2l-0.2,0.5c-0.2,0.7-0.4,1.4-0.5,2.1c-0.5,2.7-0.4,5.4,0.2,8.1c0.4,1.8,1.1,3.6,2.1,5.2
	c1,1.7,2.4,3.4,3.5,5.4c1.2,2.1,1.7,4.5,1.4,7c-0.4,2.5-1,5-1.9,7.4c-0.9,2.4-1.4,4.9-1.6,7.4c0,2.4,0.3,4.7,0.9,7
	c0.6,2.2,1.3,4.2,1.9,6.2c0.6,1.8,1.1,3.6,1.5,5.4c0.6,2.7,0.6,5.4,0,8.1c-0.2,0.7-0.4,1.4-0.8,2.1l-0.3,0.5
	C29.3,196.8,29.3,196.8,29.2,196.9" />
  <path id="Path_2638"
        style="fill:#39E886;"
        d="M25.9,142c0,0-2.1-6.6,1.6-10.5c0.1-0.1,0.2-0.1,0.3,0c0,0,0.1,0.1,0.1,0.1
	C28.1,132.7,28.4,136,25.9,142" />
  <path id="Path_2639"
        style="fill:#382F26;"
        d="M27.1,133.7c0,0.4-0.1,0.8-0.1,1.2l-0.5,2.9l-0.5,2.9c0,0.4-0.1,0.8-0.2,1.2
	c0-0.4,0-0.8,0-1.2c0.1-0.8,0.2-1.8,0.4-2.9s0.4-2.2,0.5-2.9C26.9,134.5,27,134.1,27.1,133.7" />
  <path id="Path_2640"
        style="fill:#39E886;"
        d="M28.3,157.6c0,0,1.3-6.8,6.3-8.5c0.1,0,0.2,0,0.3,0.1c0,0,0,0.1,0,0.1
	C34.6,150.4,33.3,153.5,28.3,157.6" />
  <path id="Path_2641"
        style="fill:#382F26;"
        d="M33.3,150.8c-0.2,0.4-0.4,0.7-0.7,1l-1.8,2.4l-1.8,2.4c-0.2,0.3-0.5,0.7-0.8,1
	c0.2-0.4,0.4-0.7,0.6-1.1c0.4-0.6,1-1.5,1.7-2.4s1.4-1.7,1.8-2.3C32.7,151.4,33,151.1,33.3,150.8" />
  <path id="Path_2642"
        style="fill:#39E886;"
        d="M26.9,174.6c0,0-0.8-6.9,3.6-10c0.1-0.1,0.2-0.1,0.3,0c0,0,0,0.1,0,0.1
	C30.9,165.9,30.5,169.2,26.9,174.6" />
  <path id="Path_2643"
        style="fill:#382F26;"
        d="M29.7,166.7c-0.1,0.4-0.2,0.8-0.4,1.2l-1,2.8l-1,2.8c-0.1,0.4-0.3,0.8-0.4,1.1
	c0-0.4,0.1-0.8,0.3-1.2c0.2-0.7,0.5-1.7,0.9-2.8s0.8-2.1,1.1-2.7C29.3,167.4,29.5,167.1,29.7,166.7" />
  <path id="Path_2644"
        style="fill:#39E886;"
        d="M30.8,191.8c0,0-0.5-6.9,4-9.8c0.1-0.1,0.2,0,0.3,0.1c0,0,0,0.1,0,0.1
	C35,183.2,34.5,186.5,30.8,191.8" />
  <path id="Path_2645"
        style="fill:#382F26;"
        d="M33.8,184c-0.1,0.4-0.2,0.8-0.4,1.2l-1.1,2.7l-1.1,2.7c-0.1,0.4-0.3,0.8-0.5,1.1
	c0.1-0.4,0.2-0.8,0.3-1.2c0.2-0.7,0.6-1.7,1-2.8c0.4-1.1,0.9-2,1.2-2.7C33.4,184.7,33.6,184.3,33.8,184" />
  <path id="Path_2646"
        style="fill:#39E886;"
        d="M22.9,136.2c0,0-6.1-3.2-6.2-8.5c0-0.1,0.1-0.2,0.2-0.2c0,0,0.1,0,0.1,0
	C17.9,128.1,20.5,130.2,22.9,136.2" />
  <path id="Path_2647"
        style="fill:#382F26;"
        d="M18,129.5c0.3,0.3,0.5,0.6,0.8,1l1.7,2.4l1.7,2.4c0.3,0.3,0.5,0.6,0.7,1
	c-0.3-0.3-0.6-0.6-0.8-0.9c-0.5-0.6-1.1-1.4-1.8-2.3c-0.7-0.9-1.3-1.8-1.7-2.4C18.3,130.2,18.1,129.9,18,129.5" />
  <path id="Path_2648"
        style="fill:#39E886;"
        d="M29.5,150.4c0,0-6.3-2.8-6.8-8.2c0-0.1,0.1-0.2,0.2-0.3c0,0,0.1,0,0.1,0
	C24,142.6,26.7,144.6,29.5,150.4" />
  <path id="Path_2649"
        style="fill:#382F26;"
        d="M24.1,144c0.3,0.3,0.6,0.6,0.8,0.9l1.9,2.3l1.9,2.3c0.3,0.3,0.5,0.6,0.8,1
	c-0.3-0.2-0.6-0.5-0.9-0.8c-0.5-0.5-1.2-1.3-1.9-2.2s-1.4-1.7-1.8-2.3C24.5,144.7,24.3,144.3,24.1,144" />
  <path id="Path_2650"
        style="fill:#39E886;"
        d="M25.9,166.2c0,0-4.3-5.4-2.3-10.3c0-0.1,0.2-0.2,0.3-0.1c0,0,0.1,0,0.1,0.1
	C24.6,156.7,26,159.7,25.9,166.2" />
  <path id="Path_2651"
        style="fill:#382F26;"
        d="M24,158c0.1,0.4,0.3,0.8,0.3,1.2l0.6,2.9c0.2,1.1,0.5,2,0.6,2.9
	c0.1,0.4,0.2,0.8,0.2,1.2c-0.2-0.4-0.3-0.8-0.4-1.2c-0.2-0.7-0.5-1.7-0.7-2.9c-0.2-1.1-0.4-2.2-0.6-2.9C24,158.8,24,158.4,24,158" />
  <path id="Path_2652"
        style="fill:#39E886;"
        d="M30.2,184.8c0,0-6.3-2.9-6.6-8.3c0-0.1,0.1-0.2,0.2-0.2c0,0,0.1,0,0.1,0
	C24.8,176.9,27.5,178.9,30.2,184.8" />
  <path id="Path_2653"
        style="fill:#382F26;"
        d="M24.9,178.3c0.3,0.3,0.6,0.6,0.8,0.9l1.8,2.3l1.8,2.3c0.3,0.3,0.5,0.6,0.7,1
	c-0.3-0.2-0.6-0.5-0.9-0.9c-0.5-0.6-1.2-1.4-1.9-2.3s-1.3-1.7-1.8-2.4C25.3,179,25.1,178.7,24.9,178.3" />
  <path id="Path_2654"
        style="fill:#382F26;"
        d="M42.6,157.6c0,0.1,0,0.1,0,0.2c0,0.1,0,0.3,0,0.4c0,0.4,0,1-0.1,1.7
	c-0.1,1.5-0.2,3.5-0.3,6v0c-0.6,2.8-1.8,5.6-3.4,8c-1.3,2-2.6,3.8-3.7,5.5c-1,1.5-2,3-2.8,4.6c-0.5,1.1-1,2.2-1.3,3.4
	c-0.1,0.4-0.2,0.7-0.2,1c0,0.1-0.1,0.2-0.1,0.3c0-0.1,0-0.2,0-0.3c0-0.2,0.1-0.6,0.2-1c0.3-1.2,0.7-2.3,1.2-3.4
	c0.8-1.6,1.7-3.2,2.7-4.6c1.1-1.7,2.4-3.5,3.7-5.5c1.6-2.4,2.8-5.1,3.4-7.9v0c0.2-2.5,0.3-4.5,0.4-6c0.1-0.7,0.1-1.3,0.1-1.7
	c0-0.2,0-0.3,0-0.4C42.6,157.7,42.6,157.6,42.6,157.6" />
  <path id="Path_2655"
        style="fill:#39E886;"
        d="M38.9,173.3c0,0,2.7-6.4-0.7-10.6c-0.1-0.1-0.2-0.1-0.3,0c0,0-0.1,0.1-0.1,0.1
	C37.5,163.9,37,167.2,38.9,173.3" />
  <path id="Path_2656"
        style="fill:#382F26;"
        d="M38.4,165c0.1,0.4,0.2,0.8,0.2,1.2c0.1,0.8,0.2,1.8,0.3,2.9s0.1,2.2,0.1,3
	c0,0.4,0,0.8-0.1,1.2c-0.1-0.4-0.1-0.8-0.1-1.2c-0.1-0.8-0.1-1.8-0.2-2.9s-0.1-2.1-0.2-2.9C38.4,165.8,38.4,165.4,38.4,165" />
  <g id="Group_1505"
     transform="translate(20.851 154.889)"
     style="opacity:0.3;">
    <g id="Group_1504">
      <g>
        <defs>
          <rect id="SVGID_23_"
                x="16.7"
                y="7.8"
                width="2.4"
                height="10.7" />
        </defs>
        <clipPath id="SVGID_24_">
          <use xlink:href="#SVGID_23_"
               style="overflow:visible;" />
        </clipPath>
        <g id="Group_1503"
           style="clip-path:url(#SVGID_24_);">
          <path id="Path_2657"
                d="M18.1,18.4c0,0,2.7-6.4-0.7-10.6c-0.1-0.1-0.2-0.1-0.3,0c0,0-0.1,0.1-0.1,0.1
					C16.7,9,16.1,12.3,18.1,18.4" />
        </g>
      </g>
    </g>
  </g>
  <path id="Path_2658"
        style="fill:#39E886;"
        d="M30.7,188.7c0,0,2.1-6.6-1.5-10.5c-0.1-0.1-0.2-0.1-0.3,0c0,0-0.1,0.1-0.1,0.1
	C28.6,179.4,28.3,182.7,30.7,188.7" />
  <path id="Path_2659"
        style="fill:#382F26;"
        d="M29.5,180.4c0.1,0.4,0.2,0.8,0.3,1.2c0.2,0.7,0.3,1.8,0.5,2.9s0.3,2.2,0.4,2.9
	c0.1,0.4,0.1,0.8,0,1.2c-0.1-0.4-0.2-0.8-0.2-1.2c-0.1-0.8-0.3-1.8-0.4-2.9l-0.4-2.9C29.6,181.2,29.5,180.8,29.5,180.4" />
  <g id="Group_1508"
     transform="translate(11.959 170.382)"
     style="opacity:0.3;">
    <g id="Group_1507">
      <g>
        <defs>
          <rect id="SVGID_25_"
                x="16.7"
                y="7.8"
                width="2.7"
                height="10.6" />
        </defs>
        <clipPath id="SVGID_26_">
          <use xlink:href="#SVGID_25_"
               style="overflow:visible;" />
        </clipPath>
        <g id="Group_1506"
           style="clip-path:url(#SVGID_26_);">
          <path id="Path_2660"
                d="M18.7,18.3c0,0,2.1-6.6-1.5-10.5c-0.1-0.1-0.2-0.1-0.3,0c0,0-0.1,0.1-0.1,0.1
					C16.6,9,16.3,12.4,18.7,18.3" />
        </g>
      </g>
    </g>
  </g>
  <path id="Path_2661"
        style="fill:#39E886;"
        d="M42.3,165.5c0,0,5.7-4,5.1-9.3c0-0.1-0.1-0.2-0.2-0.2c0,0-0.1,0-0.1,0.1
	C46.2,156.8,44,159.3,42.3,165.5" />
  <g id="Group_1511"
     transform="translate(25.618 148.248)"
     style="opacity:0.3;">
    <g id="Group_1510">
      <g>
        <defs>
          <rect id="SVGID_27_"
                x="16.7"
                y="7.8"
                width="5.1"
                height="9.5" />
        </defs>
        <clipPath id="SVGID_28_">
          <use xlink:href="#SVGID_27_"
               style="overflow:visible;" />
        </clipPath>
        <g id="Group_1509"
           style="clip-path:url(#SVGID_28_);">
          <path id="Path_2662"
                d="M16.7,17.3c0,0,5.7-4,5.1-9.3c0-0.1-0.1-0.2-0.2-0.2c0,0-0.1,0-0.1,0.1C20.6,8.6,18.3,11.1,16.7,17.3" />
        </g>
      </g>
    </g>
  </g>
  <path id="Path_2663"
        style="fill:#382F26;"
        d="M46.4,158.2c-0.1,0.4-0.3,0.8-0.5,1.1c-0.3,0.7-0.8,1.6-1.3,2.6s-1.1,1.9-1.5,2.6
	c-0.2,0.4-0.4,0.7-0.7,1c0.2-0.4,0.3-0.7,0.6-1.1l1.4-2.6l1.4-2.6C45.9,158.9,46.1,158.5,46.4,158.2" />
  <path id="Path_2664"
        style="fill:#39E886;"
        d="M33,182.2c0,0,6.8-1.1,8.7-6.1c0-0.1,0-0.3-0.1-0.3c0,0-0.1,0-0.1,0
	C40.3,176.1,37.2,177.3,33,182.2" />
  <g id="Group_1514"
     transform="translate(16.307 168.007)"
     style="opacity:0.3;">
    <g id="Group_1513">
      <g>
        <defs>
          <rect id="SVGID_29_"
                x="16.7"
                y="7.8"
                width="8.7"
                height="6.4" />
        </defs>
        <clipPath id="SVGID_30_">
          <use xlink:href="#SVGID_29_"
               style="overflow:visible;" />
        </clipPath>
        <g id="Group_1512"
           style="clip-path:url(#SVGID_30_);">
          <path id="Path_2665"
                d="M16.7,14.2c0,0,6.8-1.1,8.7-6.1c0-0.1,0-0.3-0.1-0.3c0,0-0.1,0-0.1,0C24,8.1,20.9,9.3,16.7,14.2" />
        </g>
      </g>
    </g>
  </g>
  <path id="Path_2666"
        style="fill:#382F26;"
        d="M39.9,177.4c-0.3,0.3-0.6,0.6-0.9,0.8c-0.6,0.5-1.4,1.1-2.4,1.8s-1.8,1.2-2.5,1.6
	c-0.3,0.2-0.7,0.4-1.1,0.6c0.3-0.3,0.6-0.5,1-0.7l2.4-1.7l2.4-1.7C39.1,177.8,39.5,177.6,39.9,177.4" />
  <path id="Path_2667"
        style="fill:#645545;"
        d="M26.5,194.8l-2,13.4h12.4l-1.6-13.4L26.5,194.8z" />
  <path id="Path_2668"
        style="fill:#382F26;"
        d="M35.8,198.9c-1.7,0.1-3.3,0.2-5,0.1c-1.7,0-3.3,0-5-0.1c1.7-0.1,3.3-0.2,5-0.1
	C32.4,198.7,34.1,198.8,35.8,198.9" />
  <path id="Path_2669"
        style="fill:#382F26;"
        d="M36,200c0,0.1-2.3,0.1-5.2,0.1s-5.2-0.1-5.2-0.1c1.7-0.1,3.4-0.2,5.2-0.1
	C32.6,199.8,34.3,199.9,36,200" />
</svg>
