<!-- Generator: Adobe Illustrator 25.1.0, SVG Export Plug-In . SVG Version: 6.00 Build 0)  -->
<svg version="1.1" id="Layer_1" xmlns="http://www.w3.org/2000/svg" xmlns:xlink="http://www.w3.org/1999/xlink" x="0px" y="0px"
	 viewBox="0 0 530 69.3" style="enable-background:new 0 0 530 69.3;" xml:space="preserve">
<g style="enable-background:new    ;">
	<path d="M1.8,59.8h1.5v2.5h2.2v-2.5H7v6.5H5.5v-2.7H3.2v2.7H1.8V59.8z"/>
	<path d="M8.3,59.8c0-0.5,0.3-0.8,0.8-0.8s0.8,0.3,0.8,0.8c0,0.5-0.3,0.8-0.8,0.8S8.3,60.3,8.3,59.8z M8.4,61.3h1.5v5H8.4V61.3z"/>
	<path d="M10.8,67.1c0-0.4,0.2-0.7,0.7-1v0c-0.3-0.2-0.5-0.4-0.5-0.8c0-0.4,0.2-0.7,0.6-0.9v0C11.3,64.1,11,63.6,11,63
		c0-1.2,1-1.8,2-1.8c0.3,0,0.5,0,0.8,0.1h1.8v1.1h-0.8c0.1,0.1,0.2,0.4,0.2,0.6c0,1.1-0.9,1.7-1.9,1.7c-0.2,0-0.4,0-0.6-0.1
		c-0.1,0.1-0.2,0.2-0.2,0.4c0,0.2,0.2,0.4,0.7,0.4h0.8c1.2,0,1.9,0.4,1.9,1.3c0,1-1.1,1.8-2.8,1.8C11.8,68.4,10.8,68,10.8,67.1z
		 M14.3,66.9c0-0.3-0.3-0.4-0.8-0.4H13c-0.3,0-0.5,0-0.7-0.1c-0.2,0.2-0.3,0.3-0.3,0.5c0,0.4,0.4,0.6,1.1,0.6S14.3,67.2,14.3,66.9z
		 M13.7,63c0-0.5-0.3-0.8-0.7-0.8c-0.4,0-0.7,0.3-0.7,0.8c0,0.5,0.3,0.8,0.7,0.8C13.4,63.8,13.7,63.6,13.7,63z"/>
	<path d="M16.5,59.3H18V61l-0.1,0.9c0.4-0.3,0.9-0.7,1.5-0.7c1.1,0,1.5,0.8,1.5,2v3.1h-1.5v-2.9c0-0.7-0.2-0.9-0.6-0.9
		c-0.4,0-0.6,0.2-0.9,0.5v3.3h-1.5V59.3z"/>
	<path d="M23.9,65.5l0.8-1c0.5,0.4,1.1,0.7,1.6,0.7c0.6,0,0.9-0.2,0.9-0.6c0-0.4-0.4-0.5-0.9-0.8l-0.8-0.4c-0.7-0.3-1.3-0.8-1.3-1.8
		c0-1.1,1-1.9,2.3-1.9c0.7,0,1.5,0.3,2.1,0.9l-0.7,0.9c-0.4-0.3-0.8-0.5-1.3-0.5c-0.5,0-0.8,0.2-0.8,0.6c0,0.4,0.4,0.5,1,0.8
		l0.8,0.3c0.8,0.3,1.3,0.8,1.3,1.8c0,1.1-0.9,2-2.5,2C25.5,66.4,24.6,66.1,23.9,65.5z"/>
	<path d="M29.5,63.8c0-1.6,1.2-2.6,2.6-2.6c0.6,0,1.1,0.2,1.4,0.5l-0.7,1c-0.2-0.2-0.4-0.3-0.7-0.3c-0.7,0-1.2,0.5-1.2,1.4
		s0.5,1.4,1.1,1.4c0.3,0,0.6-0.2,0.9-0.4l0.6,1c-0.5,0.4-1.1,0.6-1.6,0.6C30.5,66.4,29.5,65.5,29.5,63.8z"/>
	<path d="M34.4,59.3h1.5V61l-0.1,0.9c0.4-0.3,0.9-0.7,1.5-0.7c1.1,0,1.5,0.8,1.5,2v3.1h-1.5v-2.9c0-0.7-0.2-0.9-0.6-0.9
		c-0.4,0-0.6,0.2-0.9,0.5v3.3h-1.5V59.3z"/>
	<path d="M39.8,63.8c0-1.6,1.2-2.6,2.4-2.6c1.2,0,2.4,0.9,2.4,2.6s-1.2,2.6-2.4,2.6C41,66.4,39.8,65.5,39.8,63.8z M43.2,63.8
		c0-0.9-0.3-1.4-0.9-1.4c-0.6,0-0.9,0.5-0.9,1.4s0.3,1.4,0.9,1.4C42.9,65.2,43.2,64.7,43.2,63.8z"/>
	<path d="M45.4,63.8c0-1.6,1.2-2.6,2.4-2.6c1.2,0,2.4,0.9,2.4,2.6s-1.2,2.6-2.4,2.6C46.6,66.4,45.4,65.5,45.4,63.8z M48.7,63.8
		c0-0.9-0.3-1.4-0.9-1.4c-0.6,0-0.9,0.5-0.9,1.4s0.3,1.4,0.9,1.4C48.4,65.2,48.7,64.7,48.7,63.8z"/>
	<path d="M51.2,64.8v-5.5h1.5v5.5c0,0.3,0.1,0.4,0.3,0.4c0.1,0,0.1,0,0.2,0l0.2,1.1c-0.2,0.1-0.4,0.1-0.7,0.1
		C51.6,66.4,51.2,65.8,51.2,64.8z"/>
</g>
<g style="enable-background:new    ;">
	<path d="M275.7,59.8h1.5l0.5,3c0.1,0.7,0.2,1.4,0.3,2.1h0c0.1-0.7,0.3-1.4,0.4-2.1l0.7-3h1.2l0.7,3c0.1,0.7,0.3,1.4,0.4,2.1h0
		c0.1-0.7,0.2-1.4,0.3-2.1l0.4-3h1.4l-1.2,6.5h-1.8l-0.6-3c-0.1-0.5-0.2-1-0.3-1.5h0c-0.1,0.5-0.2,1-0.3,1.5l-0.6,3H277L275.7,59.8z
		"/>
	<path d="M284.1,63.8c0-1.6,1.2-2.6,2.4-2.6c1.2,0,2.4,0.9,2.4,2.6s-1.2,2.6-2.4,2.6C285.3,66.4,284.1,65.5,284.1,63.8z M287.4,63.8
		c0-0.9-0.3-1.4-0.9-1.4c-0.6,0-0.9,0.5-0.9,1.4s0.3,1.4,0.9,1.4C287.1,65.2,287.4,64.7,287.4,63.8z"/>
	<path d="M289.9,61.3h1.2l0.1,0.9h0c0.4-0.7,0.9-1,1.4-1c0.3,0,0.5,0,0.6,0.1l-0.2,1.3c-0.2,0-0.3-0.1-0.5-0.1
		c-0.4,0-0.8,0.2-1.1,0.9v2.9h-1.5V61.3z"/>
	<path d="M293.9,59.3h1.4v4h0l1.6-2h1.6l-1.7,2l1.9,2.9h-1.6l-1.1-1.9l-0.6,0.7v1.2h-1.4V59.3z"/>
</g>
<g style="enable-background:new    ;">
	<path d="M140.5,63.1c0-2.2,1.4-3.4,3.1-3.4c0.8,0,1.5,0.4,2,0.8l-0.8,0.9c-0.3-0.3-0.7-0.5-1.1-0.5c-0.9,0-1.6,0.8-1.6,2.1
		c0,1.3,0.6,2.1,1.6,2.1c0.5,0,0.9-0.3,1.3-0.6l0.8,0.9c-0.5,0.6-1.3,1-2.1,1C141.8,66.4,140.5,65.3,140.5,63.1z"/>
	<path d="M146.2,63.8c0-1.6,1.2-2.6,2.4-2.6c1.2,0,2.4,0.9,2.4,2.6s-1.2,2.6-2.4,2.6C147.3,66.4,146.2,65.5,146.2,63.8z M149.5,63.8
		c0-0.9-0.3-1.4-0.9-1.4c-0.6,0-0.9,0.5-0.9,1.4s0.3,1.4,0.9,1.4C149.2,65.2,149.5,64.7,149.5,63.8z"/>
	<path d="M152,64.8v-5.5h1.5v5.5c0,0.3,0.1,0.4,0.3,0.4c0.1,0,0.1,0,0.2,0l0.2,1.1c-0.2,0.1-0.4,0.1-0.7,0.1
		C152.4,66.4,152,65.8,152,64.8z"/>
	<path d="M154.9,64.8v-5.5h1.5v5.5c0,0.3,0.1,0.4,0.3,0.4c0.1,0,0.1,0,0.2,0l0.2,1.1c-0.2,0.1-0.4,0.1-0.7,0.1
		C155.2,66.4,154.9,65.8,154.9,64.8z"/>
	<path d="M157.4,63.8c0-1.6,1.1-2.6,2.3-2.6c1.4,0,2.1,1,2.1,2.4c0,0.3,0,0.5-0.1,0.6h-3c0.1,0.7,0.6,1,1.3,1c0.4,0,0.7-0.1,1.1-0.3
		l0.5,0.9c-0.5,0.3-1.2,0.6-1.8,0.6C158.5,66.4,157.4,65.5,157.4,63.8z M160.6,63.3c0-0.5-0.2-0.9-0.8-0.9c-0.5,0-0.9,0.3-1,0.9
		H160.6z"/>
	<path d="M162.5,67.1c0-0.4,0.2-0.7,0.7-1v0c-0.3-0.2-0.5-0.4-0.5-0.8c0-0.4,0.2-0.7,0.6-0.9v0c-0.4-0.2-0.7-0.7-0.7-1.3
		c0-1.2,1-1.8,2-1.8c0.3,0,0.5,0,0.8,0.1h1.8v1.1h-0.8c0.1,0.1,0.2,0.4,0.2,0.6c0,1.1-0.9,1.7-1.9,1.7c-0.2,0-0.4,0-0.6-0.1
		c-0.1,0.1-0.2,0.2-0.2,0.4c0,0.2,0.2,0.4,0.7,0.4h0.8c1.2,0,1.9,0.4,1.9,1.3c0,1-1.1,1.8-2.8,1.8C163.4,68.4,162.5,68,162.5,67.1z
		 M166,66.9c0-0.3-0.3-0.4-0.8-0.4h-0.5c-0.3,0-0.5,0-0.7-0.1c-0.2,0.2-0.3,0.3-0.3,0.5c0,0.4,0.4,0.6,1.1,0.6S166,67.2,166,66.9z
		 M165.4,63c0-0.5-0.3-0.8-0.7-0.8c-0.4,0-0.7,0.3-0.7,0.8c0,0.5,0.3,0.8,0.7,0.8C165.1,63.8,165.4,63.6,165.4,63z"/>
	<path d="M167.7,63.8c0-1.6,1.1-2.6,2.3-2.6c1.4,0,2.1,1,2.1,2.4c0,0.3,0,0.5-0.1,0.6h-3c0.1,0.7,0.6,1,1.3,1c0.4,0,0.7-0.1,1.1-0.3
		l0.5,0.9c-0.5,0.3-1.2,0.6-1.8,0.6C168.8,66.4,167.7,65.5,167.7,63.8z M170.9,63.3c0-0.5-0.2-0.9-0.8-0.9c-0.5,0-0.9,0.3-1,0.9
		H170.9z"/>
</g>
<g style="enable-background:new    ;">
	<path d="M386.4,59.8h2.3c1.4,0,2.5,0.5,2.5,2c0,1-0.5,1.6-1.2,1.9l1.5,2.6h-1.6l-1.2-2.3h-0.8v2.3h-1.5V59.8z M388.6,62.8
		c0.8,0,1.2-0.3,1.2-1s-0.4-0.9-1.2-0.9h-0.8v1.8H388.6z"/>
	<path d="M392,63.8c0-1.6,1.1-2.6,2.3-2.6c1.4,0,2.1,1,2.1,2.4c0,0.3,0,0.5-0.1,0.6h-3c0.1,0.7,0.6,1,1.3,1c0.4,0,0.7-0.1,1.1-0.3
		l0.5,0.9c-0.5,0.3-1.2,0.6-1.8,0.6C393.1,66.4,392,65.5,392,63.8z M395.2,63.3c0-0.5-0.2-0.9-0.8-0.9c-0.5,0-0.9,0.3-1,0.9H395.2z"
		/>
	<path d="M397.6,64.5v-2h-0.7v-1.1l0.8-0.1l0.2-1.3h1.2v1.3h1.2v1.1H399v2c0,0.6,0.2,0.8,0.6,0.8c0.2,0,0.3,0,0.5-0.1l0.2,1.1
		c-0.3,0.1-0.6,0.2-1.1,0.2C398,66.4,397.6,65.7,397.6,64.5z"/>
	<path d="M401.1,59.8c0-0.5,0.3-0.8,0.8-0.8s0.8,0.3,0.8,0.8c0,0.5-0.3,0.8-0.8,0.8S401.1,60.3,401.1,59.8z M401.2,61.3h1.5v5h-1.5
		V61.3z"/>
	<path d="M403.9,61.3h1.2l0.1,0.9h0c0.4-0.7,0.9-1,1.4-1c0.3,0,0.4,0,0.6,0.1l-0.2,1.3c-0.2,0-0.3-0.1-0.5-0.1
		c-0.4,0-0.8,0.2-1.1,0.9v2.9h-1.5V61.3z"/>
	<path d="M407.5,63.8c0-1.6,1.1-2.6,2.3-2.6c1.4,0,2.1,1,2.1,2.4c0,0.3,0,0.5-0.1,0.6h-3c0.1,0.7,0.6,1,1.3,1c0.4,0,0.7-0.1,1.1-0.3
		l0.5,0.9c-0.5,0.3-1.2,0.6-1.8,0.6C408.6,66.4,407.5,65.5,407.5,63.8z M410.7,63.3c0-0.5-0.2-0.9-0.8-0.9c-0.5,0-0.9,0.3-1,0.9
		H410.7z"/>
	<path d="M413,61.3h1.2l0.1,0.6h0c0.4-0.4,0.8-0.8,1.5-0.8c0.7,0,1.1,0.3,1.4,0.8c0.4-0.4,0.9-0.8,1.6-0.8c1.1,0,1.5,0.8,1.5,2v3.1
		h-1.5v-2.9c0-0.7-0.2-0.9-0.6-0.9c-0.2,0-0.5,0.2-0.8,0.5v3.3h-1.5v-2.9c0-0.7-0.2-0.9-0.6-0.9c-0.2,0-0.5,0.2-0.8,0.5v3.3H413
		V61.3z"/>
	<path d="M421.3,63.8c0-1.6,1.1-2.6,2.3-2.6c1.4,0,2.1,1,2.1,2.4c0,0.3,0,0.5-0.1,0.6h-3c0.1,0.7,0.6,1,1.3,1c0.4,0,0.7-0.1,1.1-0.3
		l0.5,0.9c-0.5,0.3-1.2,0.6-1.8,0.6C422.4,66.4,421.3,65.5,421.3,63.8z M424.5,63.3c0-0.5-0.2-0.9-0.8-0.9c-0.5,0-0.9,0.3-1,0.9
		H424.5z"/>
	<path d="M426.8,61.3h1.2l0.1,0.6h0c0.4-0.4,0.9-0.8,1.6-0.8c1.1,0,1.5,0.8,1.5,2v3.1h-1.5v-2.9c0-0.7-0.2-0.9-0.6-0.9
		c-0.4,0-0.6,0.2-0.9,0.5v3.3h-1.5V61.3z"/>
	<path d="M432.7,64.5v-2H432v-1.1l0.8-0.1l0.2-1.3h1.2v1.3h1.2v1.1h-1.2v2c0,0.6,0.2,0.8,0.6,0.8c0.2,0,0.3,0,0.5-0.1l0.2,1.1
		c-0.3,0.1-0.6,0.2-1.1,0.2C433.2,66.4,432.7,65.7,432.7,64.5z"/>
</g>
<g id="_001-graduate" transform="translate(33 824.741)">
	<path id="Path_3611" style="fill:#3A556A;" d="M9.6-787.1c-5.7,5.7-26.5,5.7-32.1,0c-2.6-2.6,0-14.8,0-14.8H9.6
		C9.6-801.9,12.2-789.7,9.6-787.1z"/>
	<path id="Path_3613" style="fill:#64798A;" d="M-7-815.6l-25,9.4c-0.8,0.3-1.2,1.2-0.9,1.9c0.2,0.4,0.5,0.7,0.9,0.9l25,9.4
		c0.3,0.1,0.7,0.1,1.1,0l25-9.4c0.8-0.3,1.2-1.2,0.9-1.9c-0.2-0.4-0.5-0.7-0.9-0.9l-25-9.4C-6.3-815.7-6.7-815.7-7-815.6z"/>
	<g id="Group_3428" transform="translate(0 8.777)">
		<path id="Path_3612" style="fill:#2D93BA;" d="M-30.5-781.5l1.1,1.9h2.2l1.1-1.9l1.1,1.9h1.4l-2.2-11.9h-4.9l-2.2,11.9h1.4
			L-30.5-781.5z"/>
		<path id="Path_3614" style="fill:#3A556A;" d="M-26.8-793.7l-3-0.2l1.1-17.2l21.8-3.9l0.7,2.9l-19.6,3.3L-26.8-793.7z"/>
		<ellipse id="Ellipse_384" style="fill:#44C4A1;" cx="-6.5" cy="-813.5" rx="5.2" ry="2.2"/>
		<ellipse id="Ellipse_385" style="fill:#27A2DB;" cx="-28.3" cy="-792.6" rx="3.7" ry="3.7"/>
	</g>
</g>
<g id="_008-old-woman" transform="translate(415.104 815.7)">
	<path id="Path_3742" style="fill:#FEB783;" d="M8.7-792.1L1-797.7l3.6-3.5l6.4,6.5c0.7,0.7,0.7,1.8,0,2.4
		C10.3-791.6,9.4-791.6,8.7-792.1L8.7-792.1z"/>
	<path id="Path_3743" style="fill:#FECFA0;" d="M-1.2-777.8v5.8c0,0.7-0.6,1.3-1.3,1.3h-8.6c-0.7,0-1.3-0.6-1.3-1.3v-6.7L-1.2-777.8
		z"/>
	<path id="Path_3744" style="fill:#FEB783;" d="M-1.2-777.8v5.8c0,0.7-0.6,1.3-1.3,1.3h-4.3v-7.5L-1.2-777.8z"/>
	<path id="Path_3745" style="fill:#42C1FF;" d="M4.7-801.1c-0.1,0.2,0.3-0.2-3.6,3.4L1-797.8v19.1c0,0.7-0.6,1.3-1.3,1.3
		c0,0-0.1,0-0.1,0l-15.5-1.3c-0.7-0.1-1.2-0.6-1.2-1.3c0-17.1-0.1-12.3,0.3-21.7c1.4-4,5.1-6.7,9.4-6.7c3.3,0,6.4,1.3,8.7,3.7
		L4.7-801.1z"/>
	<path id="Path_3746" style="fill:#57B3F2;" d="M4.7-801.1c-0.1,0.2,0.3-0.2-3.6,3.4L1-797.8v19.1c0,0.7-0.6,1.3-1.3,1.3
		c0,0-0.1,0-0.1,0l-6.4-0.5v-30.5c3,0.2,5.9,1.5,8,3.7L4.7-801.1z"/>
	<path id="Path_3747" style="fill:#FECFA0;" d="M-14.8-788.7l-3.4-8.1c-0.2-0.4-0.2-0.9,0-1.3l1.4-3.5l4.6,2.3l-1.1,2
		c-0.2,0.3-0.2,0.7-0.1,1l2,6.2c0.3,1-0.2,2-1.2,2.3C-13.5-787.6-14.4-788-14.8-788.7L-14.8-788.7z"/>
	<ellipse id="Ellipse_388" style="fill:#FEB783;" cx="-1.6" cy="-809.8" rx="5.2" ry="5.2"/>
	<path id="Path_3748" style="fill:#C7EFFF;" d="M15.5-772.1l-1.3-17.4c-0.2-2.3-2.1-4-4.4-3.8c-2.2,0.2-3.9,2.1-3.8,4.4l0.1,1.1
		c0,0.7,0.6,1.3,1.4,1.2s1.3-0.6,1.2-1.4c0,0,0,0,0,0l-0.1-1.1c0-0.8,0.6-1.5,1.4-1.6c0.8,0,1.5,0.6,1.6,1.4l1.3,17.4
		c0.1,0.7,0.7,1.2,1.4,1.2C15-770.8,15.5-771.4,15.5-772.1L15.5-772.1z"/>
</g>
<g id="_010-bank" transform="translate(518.335 816)">
	<g id="Group_3426" transform="translate(7.699 0)">
		<path id="Path_3754" style="fill:#88B337;" d="M-3.7-786.7c0-0.3-0.1-0.7-0.3-1l-1.7-2.8c-0.2-0.4-0.3-0.9-0.3-1.4v-8.5
			c0-5.5-4.5-10-10-10c0,0,0,0,0,0h-4.6c-5.5,0-10,4.5-10,10c0,0,0,0,0,0v8.5c0,0.5-0.1,0.9-0.3,1.4l-1.7,2.8
			c-0.2,0.3-0.3,0.6-0.3,1l0,0c0,1,0.8,1.8,1.8,1.8h25.7C-4.5-784.9-3.7-785.7-3.7-786.7z"/>
		<path id="Path_3755" style="fill:#88B337;" d="M-16.1-810.3l3.9-5.4h-12.3l3.8,5.4v1.5h4.6V-810.3z"/>
	</g>
	<path id="Path_3756" style="fill:#6B962A;" d="M3.7-787.7L2-790.4c-0.2-0.4-0.3-0.9-0.3-1.4v-8.5c0-2.2-0.7-4.4-2.1-6.2
		c-2.1,11.3-9.3,17.9-16.1,21.6H2.2c1,0,1.8-0.8,1.8-1.8C4-787,3.9-787.4,3.7-787.7L3.7-787.7z"/>
	<path id="Path_3757" style="fill:#FFFFFF;" d="M-6.8-798.8v-0.5c0-1.4-1.2-2.6-2.6-2.6h-0.5v-1.5h-1.5v1.5h-0.5
		c-1.4,0-2.6,1.2-2.6,2.6c0,1.1,0.7,2.1,1.7,2.4l1.4,0.5v2.9h-0.5c-0.6,0-1-0.5-1-1l0,0v-0.5h-1.5v0.5c0,1.4,1.2,2.6,2.6,2.6h2.5
		c1.4,0,2.6-1.2,2.6-2.6c0-1.1-0.7-2.1-1.7-2.4l-1.4-0.5v-2.9h0.5c0.6,0,1,0.5,1,1l0,0v0.5L-6.8-798.8z M-9-795.4
		c0.4,0.2,0.7,0.5,0.7,1c0,0.6-0.5,1-1,1h-0.5v-2.4L-9-795.4z M-11.4-797.9l-0.9-0.3c-0.4-0.2-0.7-0.5-0.7-1c0-0.6,0.5-1,1-1h0.5
		L-11.4-797.9z"/>
	<g id="Group_3427" transform="translate(0 1.54)">
		<path id="Path_3758" style="fill:#FDB62F;" d="M4.7-809.5L4.7-809.5c-0.3-1.6-1.5-2.8-3.1-3.1l0,0c1.6-0.3,2.8-1.5,3.1-3.1l0,0
			c0.3,1.6,1.5,2.8,3.1,3.1l0,0C6.2-812.4,5-811.1,4.7-809.5z"/>
		<path id="Path_3759" style="fill:#FDB62F;" d="M-29.9-794.1L-29.9-794.1c-0.3-1.6-1.5-2.8-3.1-3.1l0,0c1.6-0.3,2.8-1.5,3.1-3.1
			l0,0c0.3,1.6,1.5,2.8,3.1,3.1l0,0C-28.4-797-29.7-795.7-29.9-794.1z"/>
	</g>
	<path id="Path_3760" style="fill:#FEC9A3;" d="M11.3-788.8c-0.6-1.1-2-1.4-3.1-0.9L-2.7-785c-0.2,0.1-0.4,0.1-0.6,0.1h-13.5
		c-0.9,0-1.5-0.7-1.5-1.5c0-0.8,0.7-1.5,1.5-1.5h6.2c2.6,0,4.6-2.1,4.6-4.6h-12.8c-2.1,0-4.1,1-5.5,2.6l-4.8,5.8l5.4,10l20.9-5
		c0.9-0.2,1.8-0.5,2.6-1l10.8-5.5C11.7-786.3,12-787.8,11.3-788.8z"/>
	<path id="Path_3761" style="fill:#F7BB8F;" d="M-25.4-777.3l1.7,3.2l20.9-5c0.9-0.2,1.8-0.5,2.6-1l5.8-3
		C-4.1-780.2-16.9-778.3-25.4-777.3z"/>
	<path id="Path_3762" style="fill:#4398D1;" d="M-33-784.9v13.9h10l2.3-2.3l-9.2-13.9L-33-784.9z"/>
	<path id="Path_3763" style="fill:#3E8CC7;" d="M-33-771h10l2.3-2.3l-1.7-2.5c-3.4,1.4-7,2.5-10.6,3.2V-771z"/>
	<ellipse id="Ellipse_389" style="fill:#D9D9D9;" cx="-26.1" cy="-774.9" rx="1.5" ry="1.5"/>
</g>
<g id="_005-suitcase" transform="translate(283.225 821.855)">
	<g id="Group_3420" transform="translate(0 0)">
		<path id="Path_3708" style="fill:#E8834D;" d="M10.8-813.7c-0.6-0.4-1.2-0.8-1.9-1c-3.3-1.3-6.9-1.3-10.2,0
			c-0.7,0.3-1.3,0.6-1.9,1c-0.4,0.3-0.6,0.7-0.6,1.2v2.3l1.5,0.8l1.5-0.8v-1.5c3-1.4,6.4-1.4,9.3,0v1.5l1.5,0.8l1.5-0.8v-2.3
			C11.4-813,11.2-813.5,10.8-813.7L10.8-813.7z"/>
		<g id="Group_3419" transform="translate(14.601 5.415)">
			<path id="Path_3709" style="fill:#D66E41;" d="M-18.4-815.7v1.6l1.5,0.8l1.5-0.8v-1.6L-18.4-815.7z"/>
			<path id="Path_3710" style="fill:#D66E41;" d="M-3.2-815.7h-2.9v1.6l1.5,0.8l1.5-0.8L-3.2-815.7z"/>
		</g>
		<path id="Path_3711" style="fill:#365E7D;" d="M-17.2-792.6v13c0,1.5,1.2,2.8,2.8,2.8H22c1.5,0,2.8-1.2,2.8-2.8v-13H-17.2z"/>
		<path id="Path_3712" style="fill:#2B4D66;" d="M-17.2-794.2v1.6c2.3,1.8,8.4,5.4,21,5.4s18.7-3.6,21-5.4v-1.6L-17.2-794.2
			L-17.2-794.2z"/>
		<path id="Path_3713" style="fill:#407093;" d="M-17.4-795.2c2.2,1.8,8.3,5.5,21.2,5.5s18.9-3.7,21.2-5.5c0.7-0.8,1-1.9,1-2.9v-7.8
			c0-1.5-1.2-2.8-2.8-2.8h-38.8c-1.5,0-2.8,1.2-2.8,2.8c0,0,0,0,0,0v7.8C-18.4-797-18-796-17.4-795.2z"/>
		<path id="Path_3714" style="fill:#365E7D;" d="M24.9-796c-2.2,1.8-8.3,5.5-21.2,5.5s-18.9-3.7-21.2-5.5c-0.6-0.5-1-1.3-1-2.2v1.6
			c0,0.8,0.4,1.6,1,2.2c2.2,1.8,8.3,5.5,21.2,5.5s18.9-3.7,21.2-5.5c0.6-0.5,1-1.3,1-2.2v-1.6C26-797.3,25.6-796.5,24.9-796z"/>
		<path id="Path_3715" style="fill:#FFE27A;" d="M3.8-786.2c1.4,0,2.6-1.1,2.6-3.4v-1.6c0-0.5-0.4-0.9-0.9-0.9l0,0H2.1
			c-0.5,0-0.9,0.4-0.9,0.9l0,0v1.6C1.2-787.2,2.3-786.2,3.8-786.2z"/>
		<path id="Path_3716" style="fill:#F9CF58;" d="M3.8-786.9c-1.4,0-2.6-1.2-2.6-2.6l0,0v1.6c0,1.4,1.2,2.6,2.6,2.6s2.6-1.2,2.6-2.6
			v-1.6C6.4-788.1,5.2-786.9,3.8-786.9L3.8-786.9z"/>
	</g>
</g>
<g id="_004-school-1" transform="translate(166.722 815.122)">
	<g id="Group_3408" transform="translate(1.51 28.856)">
		<path id="Path_3687" style="fill:#E8EED8;" d="M-19.4-799.1H-33v-16.6h13.6"/>
		<path id="Path_3688" style="fill:#E8EED8;" d="M-4.3-799.1H9.3v-16.6H-4.3"/>
	</g>
	<rect id="Rectangle_1544" x="-11.7" y="-812.8" style="fill:#A88C55;" width="2" height="4"/>
	<g id="Group_3409" transform="translate(0 24.325)">
		<path id="Path_3689" style="fill:#4F4228;" d="M-17.9-815.7H-30l-3,4.5h15.1"/>
		<path id="Path_3690" style="fill:#4F4228;" d="M-2.8-815.7H9.3l3,4.5H-2.8"/>
	</g>
	<g id="Group_3410" transform="translate(12.837 0.578)">
		<ellipse id="Ellipse_386" style="fill:#6B5936;" cx="-23.1" cy="-814.4" rx="1.5" ry="1"/>
		<path id="Path_3692" style="fill:#6B5936;" d="M-15.6-795l-7.6-9.8l-7.6,9.8l-2.3-2.3l9.8-12.8l9.8,12.8L-15.6-795z"/>
	</g>
	<path id="Path_3693" d="M-2.8-794.4v24.2h-15.1v-24.2l7.6-9.8L-2.8-794.4z"/>
	<g id="Group_3411" transform="translate(4.531 19.491)">
		<path id="Path_3694" style="fill:#A6A6A6;" d="M-14.9-803.3L-14.9-803.3c1.7,0,3,1.4,3,3v7.6h-6v-7.6
			C-17.9-802-16.5-803.3-14.9-803.3z"/>
		<ellipse id="Ellipse_387" style="fill:#4D4D4D;" cx="-14.8" cy="-811.8" rx="4.5" ry="3.5"/>
		<path id="Path_3695" style="fill:#A6A6A6;" d="M-30-792.7v-7.6c0-0.8-0.7-1.5-1.5-1.5l0,0c-0.8,0-1.5,0.7-1.5,1.5v7.6L-30-792.7z"
			/>
		<path id="Path_3696" style="fill:#A6A6A6;" d="M-7.3-792.7h3v-7.6c0-0.8-0.7-1.5-1.5-1.5l0,0c-0.8,0-1.5,0.7-1.5,1.5L-7.3-792.7z"
			/>
		<path id="Path_3697" style="fill:#A6A6A6;" d="M-22.4-792.7v-7.6c0-0.8-0.7-1.5-1.5-1.5l0,0c-0.8,0-1.5,0.7-1.5,1.5v7.6
			L-22.4-792.7z"/>
	</g>
	<g id="Group_3412" transform="translate(7.63 35.937)">
		<rect id="Rectangle_1545" x="-33.4" y="-812.8" style="fill:#656A73;" width="4" height="1"/>
		<rect id="Rectangle_1546" x="-33.4" y="-815.8" style="fill:#656A73;" width="4" height="1"/>
	</g>
	<g id="Group_3413" transform="translate(2.87 24.325)">
		<path id="Path_3698" style="fill:#6B5936;" d="M-31.2-811.2H-33l3-4.5h1.8L-31.2-811.2z"/>
		<path id="Path_3699" style="fill:#6B5936;" d="M-27.4-811.2h-1.8l3-4.5h1.8L-27.4-811.2z"/>
		<path id="Path_3700" style="fill:#6B5936;" d="M-23.6-811.2h-1.8l3-4.5h1.7v0.2L-23.6-811.2z"/>
	</g>
	<path id="Path_3701" style="fill:#A6A6A6;" d="M7.8-773.3v-7.6c0-0.8-0.7-1.5-1.5-1.5l0,0c-0.8,0-1.5,0.7-1.5,1.5v7.6L7.8-773.3z"
		/>
	<g id="Group_3414" transform="translate(33.944 35.937)">
		<rect id="Rectangle_1547" x="-32.7" y="-812.8" style="fill:#656A73;" width="4" height="1"/>
		<rect id="Rectangle_1548" x="-32.7" y="-815.8" style="fill:#656A73;" width="4" height="1"/>
	</g>
	<g id="Group_3415" transform="translate(30.205 24.325)">
		<path id="Path_3702" style="fill:#6B5936;" d="M-22.6-811.2l-3-4.5h1.8l3,4.5H-22.6z"/>
		<path id="Path_3703" style="fill:#6B5936;" d="M-26.4-811.2l-3-4.5h1.8l3,4.5H-26.4z"/>
		<path id="Path_3704" style="fill:#6B5936;" d="M-30.1-811.2l-2.9-4.3v-0.2h1.7l3,4.5H-30.1z"/>
	</g>
	<g id="Group_3416" transform="translate(19.142 21.304)">
		<rect id="Rectangle_1549" x="-32.9" y="-798.1" style="fill:#656A73;" width="7" height="3"/>
		<path id="Path_3705" style="fill:#FFFFFF;" d="M-30.5-811.4l-1.1-1.1l1.3-1.3v-2h1.5v2.3c0,0.2-0.1,0.4-0.2,0.5L-30.5-811.4z"/>
	</g>
	<g id="Group_3418" transform="translate(1.873 41.694)">
		<rect id="Rectangle_1550" x="-32.6" y="-815.5" style="fill:#A88C55;" width="13" height="1"/>
		<rect id="Rectangle_1551" x="-4.6" y="-815.5" style="fill:#A88C55;" width="13" height="1"/>
	</g>
</g>
<g id="Group_3431" transform="translate(-286 218)">
	<rect id="Rectangle_1557" x="728" y="-192.7" style="fill:#747474;" width="32" height="4"/>
	<rect id="Rectangle_1558" x="728" y="-183.7" style="fill:#747474;" width="32" height="4"/>
</g>
<polygon style="fill:#747474;" points="128.3,32.1 117.6,26 117.6,30.6 53.3,30.6 53.3,33.7 117.6,33.7 117.6,38.3 "/>
<polygon style="fill:#747474;" points="259.4,32.1 248.7,26 248.7,30.6 184.4,30.6 184.4,33.7 248.7,33.7 248.7,38.3 "/>
<polygon style="fill:#747474;" points="389.6,32.1 378.9,26 378.9,30.6 314.6,30.6 314.6,33.7 378.9,33.7 378.9,38.3 "/>
</svg>
