<!-- Generator: Adobe Illustrator 25.1.0, SVG Export Plug-In . SVG Version: 6.00 Build 0)  -->
<svg version="1.1" id="Layer_1" xmlns="http://www.w3.org/2000/svg" xmlns:xlink="http://www.w3.org/1999/xlink" x="0px" y="0px"
	 viewBox="0 0 516 133" style="enable-background:new 0 0 516 133;" xml:space="preserve">
<text transform="matrix(1 0 0 1 18.404 74)" style="font-family:'SourceSansPro-Bold'; font-size:12px;">College Benefit</text>
<g style="enable-background:new    ;">
	<path style="fill:#747474;" d="M2.5,33.9c0-7,1.9-12.8,5.3-18.3l3.7,1.5c-2.9,5.2-4.2,11.1-4.2,16.8s1.3,11.6,4.2,16.8l-3.7,1.5
		C4.4,46.7,2.5,40.9,2.5,33.9z"/>
</g>
<g style="enable-background:new    ;">
	<path style="fill:#747474;" d="M261.7,52.2l-3.7-1.5c2.9-5.2,4.2-11.1,4.2-16.8S261,22.3,258,17.1l3.7-1.5
		c3.4,5.5,5.3,11.2,5.3,18.3S265.1,46.7,261.7,52.2z"/>
</g>
<text transform="matrix(1 0 0 1 167.7387 74)" style="font-family:'SourceSansPro-Bold'; font-size:12px;">College Costs</text>
<text transform="matrix(1 0 0 1 327.653 74)" style="font-family:'SourceSansPro-Bold'; font-size:12px;">College Costs</text>
<text transform="matrix(1 0 0 1 456.5503 59)" style="font-family:'SourceSansPro-Bold'; font-size:60px;">%</text>
<text transform="matrix(1 0 0 1 22.725 94)" style="font-family:'SourceSansPro-It'; font-size:10px;">Earnings with a college </text>
<text transform="matrix(1 0 0 1 13.48 106)" style="font-family:'SourceSansPro-It'; font-size:10px;">degree minus earnings with </text>
<text transform="matrix(1 0 0 1 25.025 118)" style="font-family:'SourceSansPro-It'; font-size:10px;">a high school diploma</text>
<text transform="matrix(1 0 0 1 162.615 94)" style="font-family:'SourceSansPro-It'; font-size:10px;">Tuition and fees, loan </text>
<text transform="matrix(1 0 0 1 158.07 106)" style="font-family:'SourceSansPro-It'; font-size:10px;">payments, missed work </text>
<text transform="matrix(1 0 0 1 178.54 118)" style="font-family:'SourceSansPro-It'; font-size:10px;">opportunities</text>
<g id="Group_3436" transform="translate(70 827)">
	<g id="Rectangle_1557">
		<rect x="345" y="-796" style="fill:#747474;" width="20" height="4"/>
	</g>
	<g id="Rectangle_1558">
		<rect x="345" y="-787" style="fill:#747474;" width="20" height="4"/>
	</g>
</g>
<g id="Group_3435" transform="translate(-222 831)">
	<g id="Rectangle_1557-2">
		<rect x="345" y="-796" style="fill:#747474;" width="21" height="4"/>
	</g>
</g>
<g id="_002-money" transform="translate(598 1436)">
	<path id="Path_3824" style="fill:#FFA000;" d="M-376.9-1409.4l-11.2-8.2c-2.7-2-6.4-2-9.1,0l-11.2,8.2c-0.8,0.6-1.3,1.4-1.5,2.4
		c0,0.3,0.1,0.6,0.3,0.8l12.7,8.5c2.6,1.7,5.9,1.7,8.5,0l12.7-8.5c0.2-0.2,0.4-0.5,0.3-0.8C-375.6-1407.9-376.1-1408.8-376.9-1409.4
		z"/>
	<path id="Path_3825" style="fill:#4CAF50;" d="M-404.7-1416.1h24.1c0.4,0,0.8,0.3,0.8,0.8v15.1c0,0.4-0.3,0.8-0.8,0.8h-24.1
		c-0.4,0-0.8-0.3-0.8-0.8v-15.1C-405.5-1415.8-405.1-1416.1-404.7-1416.1L-404.7-1416.1z"/>
	<g id="Group_3433" transform="translate(7.535 5.883)">
		<path id="Path_3826" style="fill:#FAFAFA;" d="M-400.2-1410c-2,0-3.6-0.9-3.8-2.1c-0.1-0.4,0.2-0.8,0.6-0.8
			c0.4-0.1,0.8,0.2,0.8,0.6v0c0,0.2,0.9,0.8,2.3,0.8c1.5,0,2.3-0.6,2.3-0.8c0,0,0-0.5-2.2-0.7l-0.2,0c-1.1-0.1-3.7-0.5-3.7-2.3
			c0-1.3,1.6-2.3,3.8-2.3c2,0,3.6,0.9,3.8,2.1c0.1,0.4-0.2,0.8-0.7,0.8c0,0,0,0,0,0c-0.4,0-0.8-0.2-0.8-0.7c0-0.2-0.9-0.8-2.3-0.8
			c-1.5,0-2.3,0.6-2.3,0.8c0,0,0,0.5,2.2,0.7l0.2,0c1.1,0.1,3.7,0.5,3.7,2.3C-396.4-1410.9-398.1-1410-400.2-1410z"/>
		<path id="Path_3827" style="fill:#FAFAFA;" d="M-400.2-1408.5c-0.4,0-0.8-0.3-0.8-0.8v-9c0-0.4,0.3-0.8,0.8-0.8
			c0.4,0,0.8,0.3,0.8,0.8v9C-399.5-1408.8-399.8-1408.5-400.2-1408.5z"/>
		<path id="Path_3828" style="fill:#FAFAFA;" d="M-391.2-1417.5h-3c-0.4,0-0.8-0.3-0.8-0.8s0.3-0.8,0.8-0.8h3c0.4,0,0.8,0.3,0.8,0.8
			S-390.7-1417.5-391.2-1417.5L-391.2-1417.5z"/>
		<path id="Path_3829" style="fill:#FAFAFA;" d="M-406.2-1408.5h-3c-0.4,0-0.8-0.3-0.8-0.8s0.3-0.8,0.8-0.8h3c0.4,0,0.8,0.3,0.8,0.8
			S-405.8-1408.5-406.2-1408.5L-406.2-1408.5z"/>
	</g>
	<path id="Path_3830" style="fill:#FFC107;" d="M-375.4-1406.9c-0.1-0.4-0.5-0.7-0.9-0.6c-0.1,0-0.2,0.1-0.3,0.1l-12.7,8.5
		c-2.1,1.4-4.7,1.4-6.8,0l-12.7-8.5c-0.3-0.2-0.8-0.1-1,0.2c-0.1,0.1-0.1,0.2-0.1,0.3c0,0.2-0.1,0.5-0.1,0.7v16.5
		c0,2,1.6,3.7,3.6,3.8h27.4c2,0,3.7-1.7,3.6-3.8v-16.5C-375.3-1406.5-375.4-1406.7-375.4-1406.9z"/>
</g>
<g id="_002-money-2" transform="translate(757.704 1436)">
	<path id="Path_3824-2" style="fill:#FFA000;" d="M-376.9-1409.4l-11.2-8.2c-2.7-2-6.4-2-9.1,0l-11.2,8.2c-0.8,0.6-1.3,1.4-1.5,2.4
		c0,0.3,0.1,0.6,0.3,0.8l12.7,8.5c2.6,1.7,5.9,1.7,8.5,0l12.7-8.5c0.2-0.2,0.4-0.5,0.3-0.8C-375.6-1407.9-376.1-1408.8-376.9-1409.4
		z"/>
	<path id="Path_3825-2" style="fill:#4CAF50;" d="M-404.7-1416.1h24.1c0.4,0,0.8,0.3,0.8,0.8v15.1c0,0.4-0.3,0.8-0.8,0.8h-24.1
		c-0.4,0-0.8-0.3-0.8-0.8v-15.1C-405.5-1415.8-405.1-1416.1-404.7-1416.1L-404.7-1416.1z"/>
	<g id="Group_3433-2" transform="translate(7.535 5.883)">
		<path id="Path_3826-2" style="fill:#FAFAFA;" d="M-400.2-1410c-2,0-3.6-0.9-3.8-2.1c-0.1-0.4,0.2-0.8,0.6-0.8
			c0.4-0.1,0.8,0.2,0.8,0.6v0c0,0.2,0.9,0.8,2.3,0.8c1.5,0,2.3-0.6,2.3-0.8c0,0,0-0.5-2.2-0.7l-0.2,0c-1.1-0.1-3.7-0.5-3.7-2.3
			c0-1.3,1.6-2.3,3.8-2.3c2,0,3.6,0.9,3.8,2.1c0.1,0.4-0.2,0.8-0.7,0.8c0,0,0,0,0,0c-0.4,0-0.8-0.2-0.8-0.7c0-0.2-0.9-0.8-2.3-0.8
			c-1.5,0-2.3,0.6-2.3,0.8c0,0,0,0.5,2.2,0.7l0.2,0c1.1,0.1,3.7,0.5,3.7,2.3C-396.4-1410.9-398.1-1410-400.2-1410z"/>
		<path id="Path_3827-2" style="fill:#FAFAFA;" d="M-400.2-1408.5c-0.4,0-0.8-0.3-0.8-0.8v-9c0-0.4,0.3-0.8,0.8-0.8s0.8,0.3,0.8,0.8
			v9C-399.5-1408.8-399.8-1408.5-400.2-1408.5z"/>
		<path id="Path_3828-2" style="fill:#FAFAFA;" d="M-391.2-1417.5h-3c-0.4,0-0.8-0.3-0.8-0.8s0.3-0.8,0.8-0.8h3
			c0.4,0,0.8,0.3,0.8,0.8S-390.7-1417.5-391.2-1417.5L-391.2-1417.5z"/>
		<path id="Path_3829-2" style="fill:#FAFAFA;" d="M-406.2-1408.5h-3c-0.4,0-0.8-0.3-0.8-0.8s0.3-0.8,0.8-0.8h3
			c0.4,0,0.8,0.3,0.8,0.8S-405.8-1408.5-406.2-1408.5L-406.2-1408.5z"/>
	</g>
	<path id="Path_3830-2" style="fill:#FFC107;" d="M-375.4-1406.9c-0.1-0.4-0.5-0.7-0.9-0.6c-0.1,0-0.2,0.1-0.3,0.1l-12.7,8.5
		c-2.1,1.4-4.7,1.4-6.8,0l-12.7-8.5c-0.3-0.2-0.8-0.1-1,0.2c-0.1,0.1-0.1,0.2-0.1,0.3c0,0.2-0.1,0.5-0.1,0.7v16.5
		c0,2,1.6,3.7,3.6,3.8h27.4c2,0,3.7-1.7,3.6-3.8v-16.5C-375.3-1406.5-375.4-1406.7-375.4-1406.9z"/>
</g>
<g id="Group_3438" transform="translate(40 28)">
	<g id="Group_3437" transform="translate(-96 804)">
		<g id="Rectangle_1557-3">
			<rect x="347" y="-796" style="fill:#747474;" width="22" height="3"/>
		</g>
	</g>
	<g id="Ellipse_398">
		<circle style="fill:#747474;" cx="262.5" cy="4.5" r="1.5"/>
	</g>
	<g id="Ellipse_399">
		<circle style="fill:#747474;" cx="262.5" cy="14.5" r="1.5"/>
	</g>
</g>
<g id="_08-money" transform="translate(458 1436)">
	<g id="gradient" transform="translate(0 0)">
		<ellipse id="Ellipse_391" style="fill:#CCF5CE;" cx="-394.4" cy="-1395" rx="15" ry="15"/>
		<ellipse id="Ellipse_392" style="fill:#4CAF50;" cx="-394.4" cy="-1395" rx="11.3" ry="11.3"/>
		<path id="Path_3793" style="fill:#FFFFFF;" d="M-393.5-1395.3h-1.8c-1.4,0-2.5-1.1-2.5-2.5c0-1.4,1.1-2.5,2.5-2.5c0,0,0,0,0,0h2.8
			c0.8,0,1.5,0.7,1.5,1.5c0,0.5,0.4,0.9,0.9,1c0.5,0,0.9-0.4,1-0.9c0,0,0,0,0-0.1c0-1.8-1.5-3.3-3.3-3.3h-1v-1.5
			c0-0.5-0.4-0.9-1-0.9c-0.5,0-0.9,0.4-0.9,0.9v1.5c-2.4,0-4.3,1.9-4.3,4.3c0,2.4,1.9,4.3,4.3,4.3h1.8c1.4,0,2.5,1.1,2.5,2.5
			c0,1.4-1.1,2.5-2.5,2.5h-2.8c-0.8,0-1.5-0.7-1.5-1.5c0-0.5-0.4-0.9-1-0.9c-0.5,0-0.9,0.4-0.9,0.9c0,1.9,1.5,3.4,3.4,3.4h0.9v0.9
			c0,0.5,0.4,0.9,1,0.9c0.5,0,0.9-0.4,0.9-0.9v-0.9c2.4,0,4.3-1.9,4.3-4.3C-389.2-1393.4-391.1-1395.3-393.5-1395.3L-393.5-1395.3z"
			/>
		<path id="Path_3794" style="fill:#90D7D1;" d="M-407.8-1405.2c-0.5,0-0.9-0.4-0.9-0.9l0,0v-8.2c0-0.5,0.4-0.9,0.9-1
			c0.5,0,0.9,0.4,1,0.9c0,0,0,0,0,0.1v8.2C-406.9-1405.6-407.3-1405.2-407.8-1405.2z"/>
		<path id="Path_3795" style="fill:#70CCC4;" d="M-406.6-1408.3h-2.5c-0.5,0-0.9-0.4-0.9-1c0-0.5,0.4-0.9,0.9-0.9h2.5
			c0.5,0,0.9,0.4,1,0.9S-406-1408.3-406.6-1408.3C-406.6-1408.3-406.6-1408.3-406.6-1408.3L-406.6-1408.3z"/>

			<linearGradient id="Path_3796_1_" gradientUnits="userSpaceOnUse" x1="-866.9811" y1="-1017.3177" x2="-866.7151" y2="-1016.0048" gradientTransform="matrix(28.9382 0 0 -10.1581 24690.8301 -11741.6855)">
			<stop  offset="1.100000e-02" style="stop-color:#606082"/>
			<stop  offset="1" style="stop-color:#83839E"/>
		</linearGradient>
		<path id="Path_3796" style="fill:url(#Path_3796_1_);" d="M-379.8-1414.4c0-0.4-0.3-0.7-0.7-0.9l-13.6-3.7c-0.2,0-0.3,0-0.5,0
			l-13.5,3.7c-0.5,0.1-0.8,0.6-0.6,1.1c0.1,0.3,0.3,0.5,0.6,0.6l13.5,4.6c0.2,0.1,0.4,0.1,0.6,0l13.6-4.6
			C-380-1413.7-379.7-1414-379.8-1414.4z"/>

			<linearGradient id="Path_3797_1_" gradientUnits="userSpaceOnUse" x1="-857.0673" y1="-1028.2397" x2="-856.7382" y2="-1027.4838" gradientTransform="matrix(17.241 0 0 -7.5062 14379.668 -9125.3223)">
			<stop  offset="1.100000e-02" style="stop-color:#606082"/>
			<stop  offset="1" style="stop-color:#83839E"/>
		</linearGradient>
		<path id="Path_3797" style="fill:url(#Path_3797_1_);" d="M-386.2-1412.7c-5.1-2.6-11.1-2.6-16.2,0c-0.3,0.2-0.5,0.5-0.5,0.8v4.3
			c0,0.3,0.2,0.5,0.5,0.5c0.1,0,0.2,0,0.2-0.1c2.9-1.8,12.9-1.8,15.8,0c0.2,0.1,0.5,0.1,0.6-0.1c0-0.1,0.1-0.2,0.1-0.2v-4.3
			C-385.7-1412.3-385.9-1412.6-386.2-1412.7L-386.2-1412.7z"/>
	</g>
</g>
</svg>
