<!-- Generator: Adobe Illustrator 25.1.0, SVG Export Plug-In . SVG Version: 6.00 Build 0)  -->
<svg version="1.1" id="Layer_1" xmlns="http://www.w3.org/2000/svg" xmlns:xlink="http://www.w3.org/1999/xlink" x="0px" y="0px"
	 viewBox="0 0 527 67.3" style="enable-background:new 0 0 527 67.3;" xml:space="preserve">
<g style="enable-background:new    ;">
	<path d="M1.8,57.8h1.5v2.5h2.2v-2.5H7v6.5H5.5v-2.7H3.2v2.7H1.8V57.8z"/>
	<path d="M8.3,57.8c0-0.5,0.3-0.8,0.8-0.8s0.8,0.3,0.8,0.8c0,0.5-0.3,0.8-0.8,0.8S8.3,58.3,8.3,57.8z M8.4,59.3h1.5v5H8.4V59.3z"/>
	<path d="M10.8,65.1c0-0.4,0.2-0.7,0.7-1v0c-0.3-0.2-0.5-0.4-0.5-0.8c0-0.4,0.2-0.7,0.6-0.9v0C11.3,62.1,11,61.6,11,61
		c0-1.2,1-1.8,2-1.8c0.3,0,0.5,0,0.8,0.1h1.8v1.1h-0.8c0.1,0.1,0.2,0.4,0.2,0.6c0,1.1-0.9,1.7-1.9,1.7c-0.2,0-0.4,0-0.6-0.1
		c-0.1,0.1-0.2,0.2-0.2,0.4c0,0.2,0.2,0.4,0.7,0.4h0.8c1.2,0,1.9,0.4,1.9,1.3c0,1-1.1,1.8-2.8,1.8C11.8,66.4,10.8,66,10.8,65.1z
		 M14.3,64.9c0-0.3-0.3-0.4-0.8-0.4H13c-0.3,0-0.5,0-0.7-0.1c-0.2,0.2-0.3,0.3-0.3,0.5c0,0.4,0.4,0.6,1.1,0.6S14.3,65.2,14.3,64.9z
		 M13.7,61c0-0.5-0.3-0.8-0.7-0.8c-0.4,0-0.7,0.3-0.7,0.8c0,0.5,0.3,0.8,0.7,0.8C13.4,61.8,13.7,61.6,13.7,61z"/>
	<path d="M16.5,57.3H18V59l-0.1,0.9c0.4-0.3,0.9-0.7,1.5-0.7c1.1,0,1.5,0.8,1.5,2v3.1h-1.5v-2.9c0-0.7-0.2-0.9-0.6-0.9
		c-0.4,0-0.6,0.2-0.9,0.5v3.3h-1.5V57.3z"/>
	<path d="M23.9,63.5l0.8-1c0.5,0.4,1.1,0.7,1.6,0.7c0.6,0,0.9-0.2,0.9-0.6c0-0.4-0.4-0.5-0.9-0.8l-0.8-0.4c-0.7-0.3-1.3-0.8-1.3-1.8
		c0-1.1,1-1.9,2.3-1.9c0.7,0,1.5,0.3,2.1,0.9l-0.7,0.9c-0.4-0.3-0.8-0.5-1.3-0.5c-0.5,0-0.8,0.2-0.8,0.6c0,0.4,0.4,0.5,1,0.8
		l0.8,0.3c0.8,0.3,1.3,0.8,1.3,1.8c0,1.1-0.9,2-2.5,2C25.5,64.4,24.6,64.1,23.9,63.5z"/>
	<path d="M29.5,61.8c0-1.6,1.2-2.6,2.6-2.6c0.6,0,1.1,0.2,1.4,0.5l-0.7,1c-0.2-0.2-0.4-0.3-0.7-0.3c-0.7,0-1.2,0.5-1.2,1.4
		s0.5,1.4,1.1,1.4c0.3,0,0.6-0.2,0.9-0.4l0.6,1c-0.5,0.4-1.1,0.6-1.6,0.6C30.5,64.4,29.5,63.5,29.5,61.8z"/>
	<path d="M34.4,57.3h1.5V59l-0.1,0.9c0.4-0.3,0.9-0.7,1.5-0.7c1.1,0,1.5,0.8,1.5,2v3.1h-1.5v-2.9c0-0.7-0.2-0.9-0.6-0.9
		c-0.4,0-0.6,0.2-0.9,0.5v3.3h-1.5V57.3z"/>
	<path d="M39.8,61.8c0-1.6,1.2-2.6,2.4-2.6c1.2,0,2.4,0.9,2.4,2.6s-1.2,2.6-2.4,2.6C41,64.4,39.8,63.5,39.8,61.8z M43.2,61.8
		c0-0.9-0.3-1.4-0.9-1.4c-0.6,0-0.9,0.5-0.9,1.4s0.3,1.4,0.9,1.4C42.9,63.2,43.2,62.7,43.2,61.8z"/>
	<path d="M45.4,61.8c0-1.6,1.2-2.6,2.4-2.6c1.2,0,2.4,0.9,2.4,2.6s-1.2,2.6-2.4,2.6C46.6,64.4,45.4,63.5,45.4,61.8z M48.7,61.8
		c0-0.9-0.3-1.4-0.9-1.4c-0.6,0-0.9,0.5-0.9,1.4s0.3,1.4,0.9,1.4C48.4,63.2,48.7,62.7,48.7,61.8z"/>
	<path d="M51.2,62.8v-5.5h1.5v5.5c0,0.3,0.1,0.4,0.3,0.4c0.1,0,0.1,0,0.2,0l0.2,1.1c-0.2,0.1-0.4,0.1-0.7,0.1
		C51.6,64.4,51.2,63.8,51.2,62.8z"/>
</g>
<g style="enable-background:new    ;">
	<path d="M204.1,57.8h1.5l0.4,3c0.1,0.7,0.2,1.4,0.3,2.1h0c0.1-0.7,0.3-1.4,0.4-2.1l0.7-3h1.2l0.7,3c0.1,0.7,0.3,1.4,0.4,2.1h0
		c0.1-0.7,0.2-1.4,0.3-2.1l0.4-3h1.4l-1.2,6.5H209l-0.6-3c-0.1-0.5-0.2-1-0.3-1.5h0c-0.1,0.5-0.2,1-0.3,1.5l-0.6,3h-1.8L204.1,57.8z
		"/>
	<path d="M212.5,61.8c0-1.6,1.2-2.6,2.4-2.6c1.2,0,2.4,0.9,2.4,2.6s-1.2,2.6-2.4,2.6C213.6,64.4,212.5,63.5,212.5,61.8z M215.8,61.8
		c0-0.9-0.3-1.4-0.9-1.4c-0.6,0-0.9,0.5-0.9,1.4s0.3,1.4,0.9,1.4C215.5,63.2,215.8,62.7,215.8,61.8z"/>
	<path d="M218.3,59.3h1.2l0.1,0.9h0c0.4-0.7,0.9-1,1.4-1c0.3,0,0.4,0,0.6,0.1l-0.2,1.3c-0.2,0-0.3-0.1-0.5-0.1
		c-0.4,0-0.8,0.2-1.1,0.9v2.9h-1.5V59.3z"/>
	<path d="M222.3,57.3h1.4v4h0l1.6-2h1.6l-1.7,2l1.9,2.9h-1.6l-1.1-1.9l-0.6,0.7v1.2h-1.4V57.3z"/>
</g>
<g style="enable-background:new    ;">
	<path d="M366.8,57.8h2.3c1.4,0,2.5,0.5,2.5,2c0,1-0.5,1.6-1.2,1.9l1.5,2.6h-1.6L369,62h-0.8v2.3h-1.5V57.8z M369,60.8
		c0.8,0,1.2-0.3,1.2-1S369.8,59,369,59h-0.8v1.8H369z"/>
	<path d="M372.4,61.8c0-1.6,1.1-2.6,2.3-2.6c1.4,0,2.1,1,2.1,2.4c0,0.3,0,0.5-0.1,0.6h-3c0.1,0.7,0.6,1,1.3,1c0.4,0,0.7-0.1,1.1-0.3
		l0.5,0.9c-0.5,0.3-1.2,0.6-1.8,0.6C373.5,64.4,372.4,63.5,372.4,61.8z M375.6,61.3c0-0.5-0.2-0.9-0.8-0.9c-0.5,0-0.9,0.3-1,0.9
		H375.6z"/>
	<path d="M378,62.5v-2h-0.7v-1.1l0.8-0.1l0.2-1.3h1.2v1.3h1.2v1.1h-1.2v2c0,0.6,0.2,0.8,0.6,0.8c0.2,0,0.3,0,0.5-0.1l0.2,1.1
		c-0.3,0.1-0.6,0.2-1.1,0.2C378.4,64.4,378,63.7,378,62.5z"/>
	<path d="M381.5,57.8c0-0.5,0.3-0.8,0.8-0.8s0.8,0.3,0.8,0.8c0,0.5-0.3,0.8-0.8,0.8S381.5,58.3,381.5,57.8z M381.6,59.3h1.5v5h-1.5
		V59.3z"/>
	<path d="M384.3,59.3h1.2l0.1,0.9h0c0.4-0.7,0.9-1,1.4-1c0.3,0,0.4,0,0.6,0.1l-0.2,1.3c-0.2,0-0.3-0.1-0.5-0.1
		c-0.4,0-0.8,0.2-1.1,0.9v2.9h-1.5V59.3z"/>
	<path d="M387.9,61.8c0-1.6,1.1-2.6,2.3-2.6c1.4,0,2.1,1,2.1,2.4c0,0.3,0,0.5-0.1,0.6h-3c0.1,0.7,0.6,1,1.3,1c0.4,0,0.7-0.1,1.1-0.3
		l0.5,0.9c-0.5,0.3-1.2,0.6-1.8,0.6C389,64.4,387.9,63.5,387.9,61.8z M391.1,61.3c0-0.5-0.2-0.9-0.8-0.9c-0.5,0-0.9,0.3-1,0.9H391.1
		z"/>
	<path d="M393.4,59.3h1.2l0.1,0.6h0c0.4-0.4,0.8-0.8,1.5-0.8c0.7,0,1.1,0.3,1.4,0.8c0.4-0.4,0.9-0.8,1.6-0.8c1.1,0,1.5,0.8,1.5,2
		v3.1h-1.5v-2.9c0-0.7-0.2-0.9-0.6-0.9c-0.2,0-0.5,0.2-0.8,0.5v3.3h-1.5v-2.9c0-0.7-0.2-0.9-0.6-0.9c-0.2,0-0.5,0.2-0.8,0.5v3.3
		h-1.5V59.3z"/>
	<path d="M401.7,61.8c0-1.6,1.1-2.6,2.3-2.6c1.4,0,2.1,1,2.1,2.4c0,0.3,0,0.5-0.1,0.6h-3c0.1,0.7,0.6,1,1.3,1c0.4,0,0.7-0.1,1.1-0.3
		l0.5,0.9c-0.5,0.3-1.2,0.6-1.8,0.6C402.8,64.4,401.7,63.5,401.7,61.8z M404.9,61.3c0-0.5-0.2-0.9-0.8-0.9c-0.5,0-0.9,0.3-1,0.9
		H404.9z"/>
	<path d="M407.2,59.3h1.2l0.1,0.6h0c0.4-0.4,0.9-0.8,1.6-0.8c1.1,0,1.5,0.8,1.5,2v3.1h-1.5v-2.9c0-0.7-0.2-0.9-0.6-0.9
		c-0.4,0-0.6,0.2-0.9,0.5v3.3h-1.5V59.3z"/>
	<path d="M413.1,62.5v-2h-0.7v-1.1l0.8-0.1l0.2-1.3h1.2v1.3h1.2v1.1h-1.2v2c0,0.6,0.2,0.8,0.6,0.8c0.2,0,0.3,0,0.5-0.1l0.2,1.1
		c-0.3,0.1-0.6,0.2-1.1,0.2C413.6,64.4,413.1,63.7,413.1,62.5z"/>
</g>
<g id="_001-graduate" transform="translate(33 531.741)">
	<path id="Path_3611" style="fill:#3A556A;" d="M9.6-494.1c-5.7,5.7-26.5,5.7-32.1,0c-2.6-2.6,0-14.8,0-14.8H9.6
		C9.6-508.9,12.2-496.7,9.6-494.1z"/>
	<path id="Path_3613" style="fill:#64798A;" d="M-7-522.6l-25,9.4c-0.8,0.3-1.2,1.2-0.9,1.9c0.2,0.4,0.5,0.7,0.9,0.9l25,9.4
		c0.3,0.1,0.7,0.1,1.1,0l25-9.4c0.8-0.3,1.2-1.2,0.9-1.9c-0.2-0.4-0.5-0.7-0.9-0.9l-25-9.4C-6.3-522.7-6.7-522.7-7-522.6z"/>
	<g id="Group_3428" transform="translate(0 8.777)">
		<path id="Path_3612" style="fill:#2D93BA;" d="M-30.5-488.5l1.1,1.9h2.2l1.1-1.9l1.1,1.9h1.4l-2.2-11.9h-4.9l-2.2,11.9h1.4
			L-30.5-488.5z"/>
		<path id="Path_3614" style="fill:#3A556A;" d="M-26.8-500.7l-3-0.2l1.1-17.2l21.8-3.9l0.7,2.9l-19.6,3.3L-26.8-500.7z"/>
		<ellipse id="Ellipse_384" style="fill:#44C4A1;" cx="-6.5" cy="-520.5" rx="5.2" ry="2.2"/>
		<ellipse id="Ellipse_385" style="fill:#27A2DB;" cx="-28.3" cy="-499.6" rx="3.7" ry="3.7"/>
	</g>
</g>
<g id="_008-old-woman" transform="translate(407.104 522.7)">
	<path id="Path_3742" style="fill:#FEB783;" d="M-5.9-499.1l-7.7-5.7l3.6-3.4l6.4,6.5c0.7,0.7,0.7,1.8,0,2.4
		C-4.3-498.6-5.2-498.6-5.9-499.1L-5.9-499.1z"/>
	<path id="Path_3743" style="fill:#FECFA0;" d="M-15.8-484.8v5.8c0,0.7-0.6,1.3-1.3,1.3h-8.6c-0.7,0-1.3-0.6-1.3-1.3v-6.7
		L-15.8-484.8z"/>
	<path id="Path_3744" style="fill:#FEB783;" d="M-15.8-484.8v5.8c0,0.7-0.6,1.3-1.3,1.3h-4.3v-7.5L-15.8-484.8z"/>
	<path id="Path_3745" style="fill:#42C1FF;" d="M-9.9-508.1c-0.1,0.2,0.3-0.2-3.6,3.4l-0.1-0.1v19.1c0,0.7-0.6,1.3-1.3,1.3
		c0,0-0.1,0-0.1,0l-15.5-1.3c-0.7-0.1-1.2-0.6-1.2-1.3c0-17.1-0.1-12.3,0.3-21.7c1.4-4,5.1-6.7,9.4-6.7c3.3,0,6.4,1.3,8.7,3.7
		L-9.9-508.1z"/>
	<path id="Path_3746" style="fill:#57B3F2;" d="M-9.9-508.1c-0.1,0.2,0.3-0.2-3.6,3.4l-0.1-0.1v19.1c0,0.7-0.6,1.3-1.3,1.3
		c0,0-0.1,0-0.1,0l-6.4-0.5v-30.5c3,0.2,5.9,1.5,8,3.7L-9.9-508.1z"/>
	<path id="Path_3747" style="fill:#FECFA0;" d="M-29.4-495.7l-3.4-8.1c-0.2-0.4-0.2-0.9,0-1.3l1.4-3.5l4.6,2.3l-1.1,2
		c-0.2,0.3-0.2,0.7-0.1,1l2,6.2c0.3,1-0.2,2-1.2,2.3C-28.1-494.6-29-495-29.4-495.7L-29.4-495.7z"/>
	<ellipse id="Ellipse_388" style="fill:#FEB783;" cx="-16.2" cy="-516.8" rx="5.2" ry="5.2"/>
	<path id="Path_3748" style="fill:#C7EFFF;" d="M0.9-479.1l-1.3-17.4c-0.2-2.3-2.1-4-4.4-3.8c-2.2,0.2-3.9,2.1-3.8,4.4l0.1,1.1
		c0,0.7,0.6,1.3,1.4,1.2c0.7,0,1.3-0.6,1.2-1.4c0,0,0,0,0,0l-0.1-1.1c0-0.8,0.6-1.5,1.4-1.6c0.8,0,1.5,0.6,1.6,1.4l1.3,17.4
		c0.1,0.7,0.7,1.2,1.4,1.2C0.4-477.8,0.9-478.4,0.9-479.1L0.9-479.1z"/>
</g>
<g id="_010-bank" transform="translate(515.335 523)">
	<g id="Group_3426" transform="translate(7.699 0)">
		<path id="Path_3754" style="fill:#88B337;" d="M-3.7-493.7c0-0.3-0.1-0.7-0.3-1l-1.7-2.8c-0.2-0.4-0.3-0.9-0.3-1.4v-8.5
			c0-5.5-4.5-10-10-10c0,0,0,0,0,0h-4.6c-5.5,0-10,4.5-10,10c0,0,0,0,0,0v8.5c0,0.5-0.1,0.9-0.3,1.4l-1.7,2.8
			c-0.2,0.3-0.3,0.6-0.3,1l0,0c0,1,0.8,1.8,1.8,1.8h25.7C-4.5-491.9-3.7-492.7-3.7-493.7z"/>
		<path id="Path_3755" style="fill:#88B337;" d="M-16.1-517.3l3.9-5.4h-12.3l3.8,5.4v1.5h4.6V-517.3z"/>
	</g>
	<path id="Path_3756" style="fill:#6B962A;" d="M3.7-494.7L2-497.4c-0.2-0.4-0.3-0.9-0.3-1.4v-8.5c0-2.2-0.7-4.4-2.1-6.2
		c-2.1,11.3-9.3,17.9-16.1,21.6H2.2c1,0,1.8-0.8,1.8-1.8C4-494,3.9-494.4,3.7-494.7L3.7-494.7z"/>
	<path id="Path_3757" style="fill:#FFFFFF;" d="M-6.8-505.8v-0.5c0-1.4-1.2-2.6-2.6-2.6h-0.5v-1.5h-1.5v1.5h-0.5
		c-1.4,0-2.6,1.2-2.6,2.6c0,1.1,0.7,2.1,1.7,2.4l1.4,0.5v2.9h-0.5c-0.6,0-1-0.5-1-1l0,0v-0.5h-1.5v0.5c0,1.4,1.2,2.6,2.6,2.6h2.5
		c1.4,0,2.6-1.2,2.6-2.6c0-1.1-0.7-2.1-1.7-2.4l-1.4-0.5v-2.9h0.5c0.6,0,1,0.5,1,1l0,0v0.5L-6.8-505.8z M-9-502.4
		c0.4,0.2,0.7,0.5,0.7,1c0,0.6-0.5,1-1,1h-0.5v-2.4L-9-502.4z M-11.4-504.9l-0.9-0.3c-0.4-0.2-0.7-0.5-0.7-1c0-0.6,0.5-1,1-1h0.5
		L-11.4-504.9z"/>
	<g id="Group_3427" transform="translate(0 1.54)">
		<path id="Path_3758" style="fill:#FDB62F;" d="M4.7-516.5L4.7-516.5c-0.3-1.6-1.5-2.8-3.1-3.1l0,0c1.6-0.3,2.8-1.5,3.1-3.1l0,0
			c0.3,1.6,1.5,2.8,3.1,3.1l0,0C6.2-519.4,5-518.1,4.7-516.5z"/>
		<path id="Path_3759" style="fill:#FDB62F;" d="M-29.9-501.1L-29.9-501.1c-0.3-1.6-1.5-2.8-3.1-3.1l0,0c1.6-0.3,2.8-1.5,3.1-3.1
			l0,0c0.3,1.6,1.5,2.8,3.1,3.1l0,0C-28.4-504-29.7-502.7-29.9-501.1z"/>
	</g>
	<path id="Path_3760" style="fill:#FEC9A3;" d="M11.3-495.8c-0.6-1.1-2-1.4-3.1-0.9L-2.7-492c-0.2,0.1-0.4,0.1-0.6,0.1h-13.5
		c-0.9,0-1.5-0.7-1.5-1.5c0-0.8,0.7-1.5,1.5-1.5h6.2c2.6,0,4.6-2.1,4.6-4.6h-12.8c-2.1,0-4.1,1-5.5,2.6l-4.8,5.8l5.4,10l20.9-5
		c0.9-0.2,1.8-0.5,2.6-1l10.8-5.5C11.7-493.3,12-494.8,11.3-495.8z"/>
	<path id="Path_3761" style="fill:#F7BB8F;" d="M-25.4-484.3l1.7,3.2l20.9-5c0.9-0.2,1.8-0.5,2.6-1l5.8-3
		C-4.1-487.2-16.9-485.3-25.4-484.3z"/>
	<path id="Path_3762" style="fill:#4398D1;" d="M-33-491.9v13.9h10l2.3-2.3l-9.2-13.9L-33-491.9z"/>
	<path id="Path_3763" style="fill:#3E8CC7;" d="M-33-478h10l2.3-2.3l-1.7-2.5c-3.4,1.4-7,2.5-10.6,3.2V-478z"/>
	<ellipse id="Ellipse_389" style="fill:#D9D9D9;" cx="-26.1" cy="-481.9" rx="1.5" ry="1.5"/>
</g>
<g id="_005-suitcase" transform="translate(224.225 528.855)">
	<g id="Group_3420" transform="translate(0 0)">
		<path id="Path_3708" style="fill:#E8834D;" d="M-3.8-520.7c-0.6-0.4-1.2-0.8-1.9-1c-3.3-1.3-6.9-1.3-10.2,0
			c-0.7,0.3-1.3,0.6-1.9,1c-0.4,0.3-0.6,0.7-0.6,1.2v2.3l1.5,0.8l1.5-0.8v-1.5c3-1.4,6.4-1.4,9.3,0v1.5l1.5,0.8l1.5-0.8v-2.3
			C-3.2-520-3.5-520.5-3.8-520.7L-3.8-520.7z"/>
		<g id="Group_3419" transform="translate(14.601 5.415)">
			<path id="Path_3709" style="fill:#D66E41;" d="M-33-522.7v1.6l1.5,0.8l1.5-0.8v-1.6L-33-522.7z"/>
			<path id="Path_3710" style="fill:#D66E41;" d="M-17.8-522.7h-2.9v1.6l1.5,0.8l1.5-0.8L-17.8-522.7z"/>
		</g>
		<path id="Path_3711" style="fill:#365E7D;" d="M-31.9-499.6v13c0,1.5,1.2,2.8,2.8,2.8H7.4c1.5,0,2.8-1.2,2.8-2.8v-13H-31.9z"/>
		<path id="Path_3712" style="fill:#2B4D66;" d="M-31.9-501.2v1.6c2.3,1.8,8.4,5.4,21,5.4s18.7-3.6,21-5.4v-1.6L-31.9-501.2
			L-31.9-501.2z"/>
		<path id="Path_3713" style="fill:#407093;" d="M-32-502.2c2.2,1.8,8.3,5.5,21.2,5.5s18.9-3.7,21.2-5.5c0.7-0.8,1-1.9,1-2.9v-7.8
			c0-1.5-1.2-2.8-2.8-2.8h-38.8c-1.5,0-2.8,1.2-2.8,2.8c0,0,0,0,0,0v7.8C-33-504-32.6-503-32-502.2z"/>
		<path id="Path_3714" style="fill:#365E7D;" d="M10.3-503c-2.2,1.8-8.3,5.5-21.2,5.5s-18.9-3.7-21.2-5.5c-0.6-0.5-1-1.3-1-2.2v1.6
			c0,0.8,0.4,1.6,1,2.2c2.2,1.8,8.3,5.5,21.2,5.5s18.9-3.7,21.2-5.5c0.6-0.5,1-1.3,1-2.2v-1.6C11.4-504.3,11-503.5,10.3-503z"/>
		<path id="Path_3715" style="fill:#FFE27A;" d="M-10.8-493.2c1.4,0,2.6-1.1,2.6-3.4v-1.6c0-0.5-0.4-0.9-0.9-0.9l0,0h-3.4
			c-0.5,0-0.9,0.4-0.9,0.9l0,0v1.6C-13.4-494.2-12.3-493.2-10.8-493.2z"/>
		<path id="Path_3716" style="fill:#F9CF58;" d="M-10.8-493.9c-1.4,0-2.6-1.2-2.6-2.6l0,0v1.6c0,1.4,1.2,2.6,2.6,2.6
			s2.6-1.2,2.6-2.6v-1.6C-8.2-495.1-9.4-493.9-10.8-493.9L-10.8-493.9z"/>
	</g>
</g>
<g id="Group_3430" transform="translate(-294 -78)">
	<rect id="Rectangle_1557" x="722" y="100.3" style="fill:#747474;" width="32" height="4"/>
	<rect id="Rectangle_1558" x="722" y="109.3" style="fill:#747474;" width="32" height="4"/>
</g>
<polygon style="fill:#747474;" points="179.2,30.7 168.5,24.6 168.5,29.2 65.7,29.2 65.7,32.3 168.5,32.3 168.5,36.9 "/>
<polygon style="fill:#747474;" points="357.8,30.7 347.1,24.6 347.1,29.2 244.3,29.2 244.3,32.3 347.1,32.3 347.1,36.9 "/>
</svg>
